<?xml version='1.0' encoding='UTF-8' standalone='no'?>
<!-- Created with Fritzing (http://www.fritzing.org/) -->
<svg xmlns:svg='http://www.w3.org/2000/svg' xmlns='http://www.w3.org/2000/svg' version='1.2' baseProfile='tiny' x='0in' y='0in' width='2.20333in' height='2.59561in' viewBox='0 0 158.64 186.884' >
<g partID='75590'><g transform='translate(0,46.3635)' ><g  id="breadboardbreadboard">
 <g  id="background">
  <rect  height="108" fill="#D9D9D9" width="158.64"/>
 </g>
 <rect  height="7.25" y="50.375" fill="#CCC9C9" width="158.64"/>
 <g  id="text">
  <g transform="matrix(1, 0, 0, 1, 10.0596, 9.3945)">
   <text  font-size="4.6036" fill="#B3B0B0" font-family="'DroidSans'">1</text>
  </g>
  <g transform="matrix(1, 0, 0, 1, 38.7144, 9.3945)">
   <text  font-size="4.6036" fill="#B3B0B0" font-family="'DroidSans'">5</text>
  </g>
  <g transform="matrix(1, 0, 0, 1, 73.1099, 9.3945)">
   <text  font-size="4.6036" fill="#B3B0B0" font-family="'DroidSans'">10</text>
  </g>
  <g transform="matrix(1, 0, 0, 1, 109.119, 9.3945)">
   <text  font-size="4.6036" fill="#B3B0B0" font-family="'DroidSans'">15</text>
  </g>
  <g transform="matrix(1, 0, 0, 1, 145.296, 9.3945)">
   <text  font-size="4.6036" fill="#B3B0B0" font-family="'DroidSans'">20</text>
  </g>
  <g transform="matrix(1, 0, 0, 1, 10.0596, 100.795)">
   <text  font-size="4.6036" fill="#B3B0B0" font-family="'DroidSans'">1</text>
  </g>
  <g transform="matrix(1, 0, 0, 1, 38.7144, 100.795)">
   <text  font-size="4.6036" fill="#B3B0B0" font-family="'DroidSans'">5</text>
  </g>
  <g transform="matrix(1, 0, 0, 1, 73.1099, 100.795)">
   <text  font-size="4.6036" fill="#B3B0B0" font-family="'DroidSans'">10</text>
  </g>
  <g transform="matrix(1, 0, 0, 1, 109.119, 100.795)">
   <text  font-size="4.6036" fill="#B3B0B0" font-family="'DroidSans'">15</text>
  </g>
  <g transform="matrix(1, 0, 0, 1, 145.296, 100.795)">
   <text  font-size="4.6036" fill="#B3B0B0" font-family="'DroidSans'">20</text>
  </g>
  <g transform="matrix(1, 0, 0, 1, 3.2612, 15.6143)">
   <text  font-size="4.6036" fill="#B3B0B0" font-family="'DroidSans'">A</text>
  </g>
  <g transform="matrix(1, 0, 0, 1, 3.2612, 22.8672)">
   <text  font-size="4.6036" fill="#B3B0B0" font-family="'DroidSans'">B</text>
  </g>
  <g transform="matrix(1, 0, 0, 1, 3.3052, 30.1187)">
   <text  font-size="4.6036" fill="#B3B0B0" font-family="'DroidSans'">C</text>
  </g>
  <g transform="matrix(1, 0, 0, 1, 3.2197, 37.3696)">
   <text  font-size="4.6036" fill="#B3B0B0" font-family="'DroidSans'">D</text>
  </g>
  <g transform="matrix(1, 0, 0, 1, 3.4341, 44.6211)">
   <text  font-size="4.6036" fill="#B3B0B0" font-family="'DroidSans'">E</text>
  </g>
  <g transform="matrix(1, 0, 0, 1, 3.4756, 66.377)">
   <text  font-size="4.6036" fill="#B3B0B0" font-family="'DroidSans'">F</text>
  </g>
  <g transform="matrix(1, 0, 0, 1, 3.2612, 73.627)">
   <text  font-size="4.6036" fill="#B3B0B0" font-family="'DroidSans'">G</text>
  </g>
  <g transform="matrix(1, 0, 0, 1, 3.2612, 80.8789)">
   <text  font-size="4.6036" fill="#B3B0B0" font-family="'DroidSans'">H</text>
  </g>
  <g transform="matrix(1, 0, 0, 1, 3.9473, 88.1318)">
   <text  font-size="4.6036" fill="#B3B0B0" font-family="'DroidSans'">I</text>
  </g>
  <g transform="matrix(1, 0, 0, 1, 3.4756, 95.3828)">
   <text  font-size="4.6036" fill="#B3B0B0" font-family="'DroidSans'">J</text>
  </g>
 </g>
 <g  id="sockets">
  <g  id="A1pin">
   <path  d="M8.526,14.4c0,-1.322,1.072,-2.394,2.394,-2.394s2.394,1.072,2.394,2.394" fill="#BFBFBF"/>
   <path  d="M13.313,14.4c0,1.322,-1.072,2.394,-2.394,2.394S8.526,15.722,8.526,14.4" fill="#E6E6E6"/>
   <circle  cx="10.92" cy="14.4" fill="#383838" r="1.197"/>
  </g>
  <g  id="B1pin">
   <path  d="M8.526,21.6c0,-1.322,1.072,-2.394,2.394,-2.394s2.394,1.072,2.394,2.394" fill="#BFBFBF"/>
   <path  d="M13.313,21.6c0,1.322,-1.072,2.394,-2.394,2.394S8.526,22.922,8.526,21.6l0,0" fill="#E6E6E6"/>
   <circle  cx="10.92" cy="21.6" fill="#383838" r="1.197"/>
  </g>
  <g  id="C1pin">
   <path  d="M8.526,28.8c0,-1.322,1.072,-2.394,2.394,-2.394s2.394,1.072,2.394,2.394" fill="#BFBFBF"/>
   <path  d="M13.313,28.8c0,1.322,-1.072,2.394,-2.394,2.394S8.526,30.122,8.526,28.8" fill="#E6E6E6"/>
   <circle  cx="10.92" cy="28.8" fill="#383838" r="1.197"/>
  </g>
  <g  id="D1pin">
   <path  d="M8.526,36c0,-1.322,1.072,-2.394,2.394,-2.394s2.394,1.072,2.394,2.394" fill="#BFBFBF"/>
   <path  d="M13.313,36c0,1.322,-1.072,2.394,-2.394,2.394S8.526,37.322,8.526,36l0,0" fill="#E6E6E6"/>
   <circle  cx="10.92" cy="36" fill="#383838" r="1.197"/>
  </g>
  <g  id="E1pin">
   <path  d="M8.526,43.2c0,-1.322,1.072,-2.394,2.394,-2.394s2.394,1.071,2.394,2.394" fill="#BFBFBF"/>
   <path  d="M13.313,43.2c0,1.322,-1.072,2.394,-2.394,2.394S8.526,44.522,8.526,43.2l0,0" fill="#E6E6E6"/>
   <circle  cx="10.92" cy="43.2" fill="#383838" r="1.197"/>
  </g>
  <g  id="A2pin">
   <path  d="M15.727,14.4c0,-1.322,1.071,-2.394,2.394,-2.394c1.322,0,2.394,1.072,2.394,2.394" fill="#BFBFBF"/>
   <path  d="M20.514,14.4c0,1.322,-1.07,2.395,-2.393,2.395c-1.322,0.001,-2.394,-1.07,-2.395,-2.392c0,-0.001,0,-0.002,0,-0.003" fill="#E6E6E6"/>
   <circle  cx="18.12" cy="14.4" fill="#383838" r="1.197"/>
  </g>
  <g  id="B2pin">
   <path  d="M15.727,21.6c0,-1.322,1.071,-2.394,2.394,-2.394c1.322,0,2.394,1.072,2.394,2.394" fill="#BFBFBF"/>
   <path  d="M20.514,21.6c0,1.322,-1.07,2.394,-2.393,2.395c-1.322,0,-2.394,-1.07,-2.395,-2.393c0,-0.001,0,-0.001,0,-0.002" fill="#E6E6E6"/>
   <circle  cx="18.12" cy="21.6" fill="#383838" r="1.197"/>
  </g>
  <g  id="C2pin">
   <path  d="M15.727,28.8c0,-1.322,1.071,-2.394,2.394,-2.394c1.322,0,2.394,1.072,2.394,2.394" fill="#BFBFBF"/>
   <path  d="M20.514,28.8c0,1.322,-1.07,2.395,-2.393,2.395c-1.322,0.001,-2.394,-1.07,-2.395,-2.392c0,-0.001,0,-0.002,0,-0.003" fill="#E6E6E6"/>
   <circle  cx="18.12" cy="28.8" fill="#383838" r="1.197"/>
  </g>
  <g  id="D2pin">
   <path  d="M15.727,36c0,-1.322,1.071,-2.394,2.394,-2.394c1.322,0,2.394,1.072,2.394,2.394" fill="#BFBFBF"/>
   <path  d="M20.514,36c0,1.322,-1.07,2.394,-2.393,2.395c-1.322,0,-2.394,-1.07,-2.395,-2.392c0,-0.001,0,-0.002,0,-0.003" fill="#E6E6E6"/>
   <circle  cx="18.12" cy="36" fill="#383838" r="1.197"/>
  </g>
  <g  id="E2pin">
   <path  d="M15.727,43.2c0,-1.322,1.071,-2.394,2.394,-2.394c1.322,0,2.394,1.071,2.394,2.394" fill="#BFBFBF"/>
   <path  d="M20.514,43.2c0,1.322,-1.07,2.394,-2.393,2.395c-1.322,0.001,-2.394,-1.07,-2.395,-2.392c0,-0.001,0,-0.002,0,-0.002" fill="#E6E6E6"/>
   <circle  cx="18.12" cy="43.2" fill="#383838" r="1.197"/>
  </g>
  <g  id="A3pin">
   <path  d="M22.926,14.4c0,-1.322,1.072,-2.394,2.394,-2.394c1.322,0,2.394,1.072,2.394,2.394" fill="#BFBFBF"/>
   <path  d="M27.713,14.4c0,1.322,-1.071,2.394,-2.394,2.394c-1.322,0,-2.394,-1.071,-2.394,-2.394l0,0" fill="#E6E6E6"/>
   <circle  cx="25.32" cy="14.4" fill="#383838" r="1.197"/>
  </g>
  <g  id="B3pin">
   <path  d="M22.926,21.6c0,-1.322,1.072,-2.394,2.394,-2.394c1.322,0,2.394,1.072,2.394,2.394" fill="#BFBFBF"/>
   <path  d="M27.713,21.6c0,1.322,-1.071,2.394,-2.394,2.394c-1.322,0,-2.394,-1.072,-2.394,-2.394" fill="#E6E6E6"/>
   <circle  cx="25.32" cy="21.6" fill="#383838" r="1.197"/>
  </g>
  <g  id="C3pin">
   <path  d="M22.926,28.8c0,-1.322,1.072,-2.394,2.394,-2.394c1.322,0,2.394,1.072,2.394,2.394" fill="#BFBFBF"/>
   <path  d="M27.713,28.8c0,1.322,-1.071,2.394,-2.394,2.394c-1.322,0,-2.394,-1.071,-2.394,-2.394l0,0" fill="#E6E6E6"/>
   <circle  cx="25.32" cy="28.8" fill="#383838" r="1.197"/>
  </g>
  <g  id="D3pin">
   <path  d="M22.926,36c0,-1.322,1.072,-2.394,2.394,-2.394c1.322,0,2.394,1.072,2.394,2.394" fill="#BFBFBF"/>
   <path  d="M27.713,36c0,1.322,-1.071,2.394,-2.394,2.394c-1.322,0,-2.394,-1.072,-2.394,-2.394" fill="#E6E6E6"/>
   <circle  cx="25.32" cy="36" fill="#383838" r="1.197"/>
  </g>
  <g  id="E3pin">
   <path  d="M22.926,43.2c0,-1.322,1.072,-2.394,2.394,-2.394c1.322,0,2.394,1.071,2.394,2.394" fill="#BFBFBF"/>
   <path  d="M27.713,43.2c0,1.322,-1.071,2.394,-2.394,2.394c-1.322,0,-2.394,-1.072,-2.394,-2.394" fill="#E6E6E6"/>
   <circle  cx="25.32" cy="43.2" fill="#383838" r="1.197"/>
  </g>
  <g  id="A4pin">
   <path  d="M30.126,14.4c0,-1.322,1.072,-2.394,2.394,-2.394s2.394,1.072,2.394,2.394" fill="#BFBFBF"/>
   <path  d="M34.914,14.4c0,1.322,-1.072,2.394,-2.394,2.394s-2.394,-1.071,-2.394,-2.394l0,0" fill="#E6E6E6"/>
   <circle  cx="32.52" cy="14.4" fill="#383838" r="1.197"/>
  </g>
  <g  id="B4pin">
   <path  d="M30.126,21.6c0,-1.322,1.072,-2.394,2.394,-2.394s2.394,1.072,2.394,2.394" fill="#BFBFBF"/>
   <path  d="M34.914,21.6c0,1.322,-1.072,2.394,-2.394,2.394s-2.394,-1.072,-2.394,-2.394" fill="#E6E6E6"/>
   <circle  cx="32.52" cy="21.6" fill="#383838" r="1.197"/>
  </g>
  <g  id="C4pin">
   <path  d="M30.126,28.8c0,-1.322,1.072,-2.394,2.394,-2.394s2.394,1.072,2.394,2.394" fill="#BFBFBF"/>
   <path  d="M34.914,28.8c0,1.322,-1.072,2.394,-2.394,2.394s-2.394,-1.071,-2.394,-2.394l0,0" fill="#E6E6E6"/>
   <circle  cx="32.52" cy="28.8" fill="#383838" r="1.197"/>
  </g>
  <g  id="D4pin">
   <path  d="M30.126,36c0,-1.322,1.072,-2.394,2.394,-2.394s2.394,1.072,2.394,2.394" fill="#BFBFBF"/>
   <path  d="M34.914,36c0,1.322,-1.072,2.394,-2.394,2.394S30.126,37.322,30.126,36" fill="#E6E6E6"/>
   <circle  cx="32.52" cy="36" fill="#383838" r="1.197"/>
  </g>
  <g  id="E4pin">
   <path  d="M30.126,43.2c0,-1.322,1.072,-2.394,2.394,-2.394s2.394,1.071,2.394,2.394" fill="#BFBFBF"/>
   <path  d="M34.914,43.2c0,1.322,-1.072,2.394,-2.394,2.394s-2.394,-1.072,-2.394,-2.394" fill="#E6E6E6"/>
   <circle  cx="32.52" cy="43.2" fill="#383838" r="1.197"/>
  </g>
  <g  id="A5pin">
   <path  d="M37.326,14.4c0,-1.322,1.072,-2.394,2.394,-2.394c1.322,0,2.394,1.072,2.394,2.394" fill="#BFBFBF"/>
   <path  d="M42.114,14.4c0,1.322,-1.072,2.394,-2.394,2.394c-1.322,0,-2.394,-1.071,-2.394,-2.394l0,0" fill="#E6E6E6"/>
   <circle  cx="39.72" cy="14.4" fill="#383838" r="1.197"/>
  </g>
  <g  id="B5pin">
   <path  d="M37.326,21.6c0,-1.322,1.072,-2.394,2.394,-2.394c1.322,0,2.394,1.072,2.394,2.394" fill="#BFBFBF"/>
   <path  d="M42.114,21.6c0,1.322,-1.072,2.394,-2.394,2.394c-1.322,0,-2.394,-1.072,-2.394,-2.394" fill="#E6E6E6"/>
   <circle  cx="39.72" cy="21.6" fill="#383838" r="1.197"/>
  </g>
  <g  id="C5pin">
   <path  d="M37.326,28.8c0,-1.322,1.072,-2.394,2.394,-2.394c1.322,0,2.394,1.072,2.394,2.394" fill="#BFBFBF"/>
   <path  d="M42.114,28.8c0,1.322,-1.072,2.394,-2.394,2.394c-1.322,0,-2.394,-1.071,-2.394,-2.394l0,0" fill="#E6E6E6"/>
   <circle  cx="39.72" cy="28.8" fill="#383838" r="1.197"/>
  </g>
  <g  id="D5pin">
   <path  d="M37.326,36c0,-1.322,1.072,-2.394,2.394,-2.394c1.322,0,2.394,1.072,2.394,2.394" fill="#BFBFBF"/>
   <path  d="M42.114,36c0,1.322,-1.072,2.394,-2.394,2.394c-1.322,0,-2.394,-1.072,-2.394,-2.394" fill="#E6E6E6"/>
   <circle  cx="39.72" cy="36" fill="#383838" r="1.197"/>
  </g>
  <g  id="E5pin">
   <path  d="M37.326,43.2c0,-1.322,1.072,-2.394,2.394,-2.394c1.322,0,2.394,1.071,2.394,2.394" fill="#BFBFBF"/>
   <path  d="M42.114,43.2c0,1.322,-1.072,2.394,-2.394,2.394c-1.322,0,-2.394,-1.072,-2.394,-2.394" fill="#E6E6E6"/>
   <circle  cx="39.72" cy="43.2" fill="#383838" r="1.197"/>
  </g>
  <g  id="A6pin">
   <path  d="M44.526,14.4c0,-1.322,1.072,-2.394,2.394,-2.394s2.394,1.072,2.394,2.394" fill="#BFBFBF"/>
   <path  d="M49.313,14.4c0,1.322,-1.072,2.394,-2.394,2.394s-2.394,-1.071,-2.394,-2.394l0,0" fill="#E6E6E6"/>
   <circle  cx="46.92" cy="14.4" fill="#383838" r="1.197"/>
  </g>
  <g  id="B6pin">
   <path  d="M44.526,21.6c0,-1.322,1.072,-2.394,2.394,-2.394s2.394,1.072,2.394,2.394" fill="#BFBFBF"/>
   <path  d="M49.313,21.6c0,1.322,-1.072,2.394,-2.394,2.394s-2.394,-1.072,-2.394,-2.394" fill="#E6E6E6"/>
   <circle  cx="46.92" cy="21.6" fill="#383838" r="1.197"/>
  </g>
  <g  id="C6pin">
   <path  d="M44.526,28.8c0,-1.322,1.072,-2.394,2.394,-2.394s2.394,1.072,2.394,2.394" fill="#BFBFBF"/>
   <path  d="M49.313,28.8c0,1.322,-1.072,2.394,-2.394,2.394s-2.394,-1.071,-2.394,-2.394l0,0" fill="#E6E6E6"/>
   <circle  cx="46.92" cy="28.8" fill="#383838" r="1.197"/>
  </g>
  <g  id="D6pin">
   <path  d="M44.526,36c0,-1.322,1.072,-2.394,2.394,-2.394s2.394,1.072,2.394,2.394" fill="#BFBFBF"/>
   <path  d="M49.313,36c0,1.322,-1.072,2.394,-2.394,2.394S44.526,37.322,44.526,36" fill="#E6E6E6"/>
   <circle  cx="46.92" cy="36" fill="#383838" r="1.197"/>
  </g>
  <g  id="E6pin">
   <path  d="M44.526,43.2c0,-1.322,1.072,-2.394,2.394,-2.394s2.394,1.071,2.394,2.394" fill="#BFBFBF"/>
   <path  d="M49.313,43.2c0,1.322,-1.072,2.394,-2.394,2.394s-2.394,-1.072,-2.394,-2.394" fill="#E6E6E6"/>
   <circle  cx="46.92" cy="43.2" fill="#383838" r="1.197"/>
  </g>
  <g  id="A7pin">
   <path  d="M51.727,14.4c0,-1.322,1.071,-2.394,2.394,-2.394c1.322,0,2.394,1.072,2.394,2.394" fill="#BFBFBF"/>
   <path  d="M56.514,14.4c0,1.322,-1.072,2.394,-2.394,2.394c-1.322,0,-2.394,-1.071,-2.394,-2.394l0,0" fill="#E6E6E6"/>
   <circle  cx="54.12" cy="14.4" fill="#383838" r="1.197"/>
  </g>
  <g  id="B7pin">
   <path  d="M51.727,21.6c0,-1.322,1.071,-2.394,2.394,-2.394c1.322,0,2.394,1.072,2.394,2.394" fill="#BFBFBF"/>
   <path  d="M56.514,21.6c0,1.322,-1.072,2.394,-2.394,2.394c-1.322,0,-2.394,-1.072,-2.394,-2.394" fill="#E6E6E6"/>
   <circle  cx="54.12" cy="21.6" fill="#383838" r="1.197"/>
  </g>
  <g  id="C7pin">
   <path  d="M51.727,28.8c0,-1.322,1.071,-2.394,2.394,-2.394c1.322,0,2.394,1.072,2.394,2.394" fill="#BFBFBF"/>
   <path  d="M56.514,28.8c0,1.322,-1.072,2.394,-2.394,2.394c-1.322,0,-2.394,-1.071,-2.394,-2.394l0,0" fill="#E6E6E6"/>
   <circle  cx="54.12" cy="28.8" fill="#383838" r="1.197"/>
  </g>
  <g  id="D7pin">
   <path  d="M51.727,36c0,-1.322,1.071,-2.394,2.394,-2.394c1.322,0,2.394,1.072,2.394,2.394" fill="#BFBFBF"/>
   <path  d="M56.514,36c0,1.322,-1.072,2.394,-2.394,2.394c-1.322,0,-2.394,-1.072,-2.394,-2.394" fill="#E6E6E6"/>
   <circle  cx="54.12" cy="36" fill="#383838" r="1.197"/>
  </g>
  <g  id="E7pin">
   <path  d="M51.727,43.2c0,-1.322,1.071,-2.394,2.394,-2.394c1.322,0,2.394,1.071,2.394,2.394" fill="#BFBFBF"/>
   <path  d="M56.514,43.2c0,1.322,-1.072,2.394,-2.394,2.394c-1.322,0,-2.394,-1.072,-2.394,-2.394" fill="#E6E6E6"/>
   <circle  cx="54.12" cy="43.2" fill="#383838" r="1.197"/>
  </g>
  <g  id="A8pin">
   <path  d="M58.926,14.4c0,-1.322,1.072,-2.394,2.394,-2.394c1.322,0,2.394,1.072,2.394,2.394" fill="#BFBFBF"/>
   <path  d="M63.713,14.4c0,1.322,-1.071,2.394,-2.394,2.394c-1.322,0,-2.394,-1.071,-2.394,-2.394l0,0" fill="#E6E6E6"/>
   <circle  cx="61.32" cy="14.4" fill="#383838" r="1.197"/>
  </g>
  <g  id="B8pin">
   <path  d="M58.926,21.6c0,-1.322,1.072,-2.394,2.394,-2.394c1.322,0,2.394,1.072,2.394,2.394" fill="#BFBFBF"/>
   <path  d="M63.713,21.6c0,1.322,-1.071,2.394,-2.394,2.394c-1.322,0,-2.394,-1.072,-2.394,-2.394" fill="#E6E6E6"/>
   <circle  cx="61.32" cy="21.6" fill="#383838" r="1.197"/>
  </g>
  <g  id="C8pin">
   <path  d="M58.926,28.8c0,-1.322,1.072,-2.394,2.394,-2.394c1.322,0,2.394,1.072,2.394,2.394" fill="#BFBFBF"/>
   <path  d="M63.713,28.8c0,1.322,-1.071,2.394,-2.394,2.394c-1.322,0,-2.394,-1.071,-2.394,-2.394l0,0" fill="#E6E6E6"/>
   <circle  cx="61.32" cy="28.8" fill="#383838" r="1.197"/>
  </g>
  <g  id="D8pin">
   <path  d="M58.926,36c0,-1.322,1.072,-2.394,2.394,-2.394c1.322,0,2.394,1.072,2.394,2.394" fill="#BFBFBF"/>
   <path  d="M63.713,36c0,1.322,-1.071,2.394,-2.394,2.394c-1.322,0,-2.394,-1.072,-2.394,-2.394" fill="#E6E6E6"/>
   <circle  cx="61.32" cy="36" fill="#383838" r="1.197"/>
  </g>
  <g  id="E8pin">
   <path  d="M58.926,43.2c0,-1.322,1.072,-2.394,2.394,-2.394c1.322,0,2.394,1.071,2.394,2.394" fill="#BFBFBF"/>
   <path  d="M63.713,43.2c0,1.322,-1.071,2.394,-2.394,2.394c-1.322,0,-2.394,-1.072,-2.394,-2.394" fill="#E6E6E6"/>
   <circle  cx="61.32" cy="43.2" fill="#383838" r="1.197"/>
  </g>
  <g  id="A9pin">
   <path  d="M66.126,14.4c0,-1.322,1.071,-2.394,2.394,-2.394c1.322,0,2.394,1.072,2.394,2.394" fill="#BFBFBF"/>
   <path  d="M70.914,14.4c0,1.322,-1.072,2.394,-2.394,2.394c-1.322,0,-2.394,-1.071,-2.394,-2.394l0,0" fill="#E6E6E6"/>
   <circle  cx="68.52" cy="14.4" fill="#383838" r="1.197"/>
  </g>
  <g  id="B9pin">
   <path  d="M66.126,21.6c0,-1.322,1.071,-2.394,2.394,-2.394c1.322,0,2.394,1.072,2.394,2.394" fill="#BFBFBF"/>
   <path  d="M70.914,21.6c0,1.322,-1.072,2.394,-2.394,2.394c-1.322,0,-2.394,-1.072,-2.394,-2.394" fill="#E6E6E6"/>
   <circle  cx="68.52" cy="21.6" fill="#383838" r="1.197"/>
  </g>
  <g  id="C9pin">
   <path  d="M66.126,28.8c0,-1.322,1.071,-2.394,2.394,-2.394c1.322,0,2.394,1.072,2.394,2.394" fill="#BFBFBF"/>
   <path  d="M70.914,28.8c0,1.322,-1.072,2.394,-2.394,2.394c-1.322,0,-2.394,-1.071,-2.394,-2.394l0,0" fill="#E6E6E6"/>
   <circle  cx="68.52" cy="28.8" fill="#383838" r="1.197"/>
  </g>
  <g  id="D9pin">
   <path  d="M66.126,36c0,-1.322,1.071,-2.394,2.394,-2.394c1.322,0,2.394,1.072,2.394,2.394" fill="#BFBFBF"/>
   <path  d="M70.914,36c0,1.322,-1.072,2.394,-2.394,2.394c-1.322,0,-2.394,-1.072,-2.394,-2.394" fill="#E6E6E6"/>
   <circle  cx="68.52" cy="36" fill="#383838" r="1.197"/>
  </g>
  <g  id="E9pin">
   <path  d="M66.126,43.2c0,-1.322,1.071,-2.394,2.394,-2.394c1.322,0,2.394,1.071,2.394,2.394" fill="#BFBFBF"/>
   <path  d="M70.914,43.2c0,1.322,-1.072,2.394,-2.394,2.394c-1.322,0,-2.394,-1.072,-2.394,-2.394" fill="#E6E6E6"/>
   <circle  cx="68.52" cy="43.2" fill="#383838" r="1.197"/>
  </g>
  <g  id="A10pin">
   <path  d="M73.326,14.4c0,-1.322,1.072,-2.394,2.394,-2.394c1.322,0,2.394,1.072,2.394,2.394" fill="#BFBFBF"/>
   <path  d="M78.113,14.4c0,1.322,-1.071,2.394,-2.394,2.394c-1.322,0,-2.394,-1.071,-2.394,-2.394l0,0" fill="#E6E6E6"/>
   <circle  cx="75.72" cy="14.4" fill="#383838" r="1.197"/>
  </g>
  <g  id="B10pin">
   <path  d="M73.326,21.6c0,-1.322,1.072,-2.394,2.394,-2.394c1.322,0,2.394,1.072,2.394,2.394" fill="#BFBFBF"/>
   <path  d="M78.113,21.6c0,1.322,-1.071,2.394,-2.394,2.394c-1.322,0,-2.394,-1.072,-2.394,-2.394" fill="#E6E6E6"/>
   <circle  cx="75.72" cy="21.6" fill="#383838" r="1.197"/>
  </g>
  <g  id="C10pin">
   <path  d="M73.326,28.8c0,-1.322,1.072,-2.394,2.394,-2.394c1.322,0,2.394,1.072,2.394,2.394" fill="#BFBFBF"/>
   <path  d="M78.113,28.8c0,1.322,-1.071,2.394,-2.394,2.394c-1.322,0,-2.394,-1.071,-2.394,-2.394l0,0" fill="#E6E6E6"/>
   <circle  cx="75.72" cy="28.8" fill="#383838" r="1.197"/>
  </g>
  <g  id="D10pin">
   <path  d="M73.326,36c0,-1.322,1.072,-2.394,2.394,-2.394c1.322,0,2.394,1.072,2.394,2.394" fill="#BFBFBF"/>
   <path  d="M78.113,36c0,1.322,-1.071,2.394,-2.394,2.394c-1.322,0,-2.394,-1.072,-2.394,-2.394" fill="#E6E6E6"/>
   <circle  cx="75.72" cy="36" fill="#383838" r="1.197"/>
  </g>
  <g  id="E10pin">
   <path  d="M73.326,43.2c0,-1.322,1.072,-2.394,2.394,-2.394c1.322,0,2.394,1.071,2.394,2.394" fill="#BFBFBF"/>
   <path  d="M78.113,43.2c0,1.322,-1.071,2.394,-2.394,2.394c-1.322,0,-2.394,-1.072,-2.394,-2.394" fill="#E6E6E6"/>
   <circle  cx="75.72" cy="43.2" fill="#383838" r="1.197"/>
  </g>
  <g  id="A11pin">
   <path  d="M80.527,14.4c0,-1.322,1.071,-2.394,2.393,-2.394c1.322,0,2.395,1.072,2.395,2.394" fill="#BFBFBF"/>
   <path  d="M85.314,14.4c0,1.322,-1.072,2.394,-2.395,2.394c-1.321,0,-2.393,-1.071,-2.393,-2.394l0,0" fill="#E6E6E6"/>
   <circle  cx="82.919" cy="14.4" fill="#383838" r="1.197"/>
  </g>
  <g  id="B11pin">
   <path  d="M80.527,21.6c0,-1.322,1.071,-2.394,2.393,-2.394c1.322,0,2.395,1.072,2.395,2.394" fill="#BFBFBF"/>
   <path  d="M85.314,21.6c0,1.322,-1.072,2.394,-2.395,2.394c-1.321,0,-2.393,-1.072,-2.393,-2.394" fill="#E6E6E6"/>
   <circle  cx="82.919" cy="21.6" fill="#383838" r="1.197"/>
  </g>
  <g  id="C11pin">
   <path  d="M80.527,28.8c0,-1.322,1.071,-2.394,2.393,-2.394c1.322,0,2.395,1.072,2.395,2.394" fill="#BFBFBF"/>
   <path  d="M85.314,28.8c0,1.322,-1.072,2.394,-2.395,2.394c-1.321,0,-2.393,-1.071,-2.393,-2.394l0,0" fill="#E6E6E6"/>
   <circle  cx="82.919" cy="28.8" fill="#383838" r="1.197"/>
  </g>
  <g  id="D11pin">
   <path  d="M80.527,36c0,-1.322,1.071,-2.394,2.393,-2.394c1.322,0,2.395,1.072,2.395,2.394" fill="#BFBFBF"/>
   <path  d="M85.314,36c0,1.322,-1.072,2.394,-2.395,2.394c-1.321,0,-2.393,-1.072,-2.393,-2.394" fill="#E6E6E6"/>
   <circle  cx="82.919" cy="36" fill="#383838" r="1.197"/>
  </g>
  <g  id="E11pin">
   <path  d="M80.527,43.2c0,-1.322,1.071,-2.394,2.393,-2.394c1.322,0,2.395,1.071,2.395,2.394" fill="#BFBFBF"/>
   <path  d="M85.314,43.2c0,1.322,-1.072,2.394,-2.395,2.394c-1.321,0,-2.393,-1.072,-2.393,-2.394" fill="#E6E6E6"/>
   <circle  cx="82.919" cy="43.2" fill="#383838" r="1.197"/>
  </g>
  <g  id="A12pin">
   <path  d="M87.726,14.4c0,-1.322,1.072,-2.394,2.394,-2.394c1.322,0,2.394,1.072,2.394,2.394" fill="#BFBFBF"/>
   <path  d="M92.513,14.4c0,1.322,-1.071,2.394,-2.394,2.394c-1.321,0,-2.394,-1.071,-2.394,-2.394l0,0" fill="#E6E6E6"/>
   <circle  cx="90.12" cy="14.4" fill="#383838" r="1.197"/>
  </g>
  <g  id="B12pin">
   <path  d="M87.726,21.6c0,-1.322,1.072,-2.394,2.394,-2.394c1.322,0,2.394,1.072,2.394,2.394" fill="#BFBFBF"/>
   <path  d="M92.513,21.6c0,1.322,-1.071,2.394,-2.394,2.394c-1.321,0,-2.394,-1.072,-2.394,-2.394" fill="#E6E6E6"/>
   <circle  cx="90.12" cy="21.6" fill="#383838" r="1.197"/>
  </g>
  <g  id="C12pin">
   <path  d="M87.726,28.8c0,-1.322,1.072,-2.394,2.394,-2.394c1.322,0,2.394,1.072,2.394,2.394" fill="#BFBFBF"/>
   <path  d="M92.513,28.8c0,1.322,-1.071,2.394,-2.394,2.394c-1.321,0,-2.394,-1.071,-2.394,-2.394l0,0" fill="#E6E6E6"/>
   <circle  cx="90.12" cy="28.8" fill="#383838" r="1.197"/>
  </g>
  <g  id="D12pin">
   <path  d="M87.726,36c0,-1.322,1.072,-2.394,2.394,-2.394c1.322,0,2.394,1.072,2.394,2.394" fill="#BFBFBF"/>
   <path  d="M92.513,36c0,1.322,-1.071,2.394,-2.394,2.394c-1.321,0,-2.394,-1.072,-2.394,-2.394" fill="#E6E6E6"/>
   <circle  cx="90.12" cy="36" fill="#383838" r="1.197"/>
  </g>
  <g  id="E12pin">
   <path  d="M87.726,43.2c0,-1.322,1.072,-2.394,2.394,-2.394c1.322,0,2.394,1.071,2.394,2.394" fill="#BFBFBF"/>
   <path  d="M92.513,43.2c0,1.322,-1.071,2.394,-2.394,2.394c-1.321,0,-2.394,-1.072,-2.394,-2.394" fill="#E6E6E6"/>
   <circle  cx="90.12" cy="43.2" fill="#383838" r="1.197"/>
  </g>
  <g  id="A13pin">
   <path  d="M94.926,14.4c0,-1.322,1.071,-2.394,2.394,-2.394s2.394,1.072,2.394,2.394" fill="#BFBFBF"/>
   <path  d="M99.713,14.4c0,1.322,-1.071,2.394,-2.394,2.394s-2.394,-1.071,-2.394,-2.394l0,0" fill="#E6E6E6"/>
   <circle  cx="97.32" cy="14.4" fill="#383838" r="1.197"/>
  </g>
  <g  id="B13pin">
   <path  d="M94.926,21.6c0,-1.322,1.071,-2.394,2.394,-2.394s2.394,1.072,2.394,2.394" fill="#BFBFBF"/>
   <path  d="M99.713,21.6c0,1.322,-1.071,2.394,-2.394,2.394s-2.394,-1.072,-2.394,-2.394" fill="#E6E6E6"/>
   <circle  cx="97.32" cy="21.6" fill="#383838" r="1.197"/>
  </g>
  <g  id="C13pin">
   <path  d="M94.926,28.8c0,-1.322,1.071,-2.394,2.394,-2.394s2.394,1.072,2.394,2.394" fill="#BFBFBF"/>
   <path  d="M99.713,28.8c0,1.322,-1.071,2.394,-2.394,2.394s-2.394,-1.071,-2.394,-2.394l0,0" fill="#E6E6E6"/>
   <circle  cx="97.32" cy="28.8" fill="#383838" r="1.197"/>
  </g>
  <g  id="D13pin">
   <path  d="M94.926,36c0,-1.322,1.071,-2.394,2.394,-2.394s2.394,1.072,2.394,2.394" fill="#BFBFBF"/>
   <path  d="M99.713,36c0,1.322,-1.071,2.394,-2.394,2.394S94.926,37.322,94.926,36" fill="#E6E6E6"/>
   <circle  cx="97.32" cy="36" fill="#383838" r="1.197"/>
  </g>
  <g  id="E13pin">
   <path  d="M94.926,43.2c0,-1.322,1.071,-2.394,2.394,-2.394s2.394,1.071,2.394,2.394" fill="#BFBFBF"/>
   <path  d="M99.713,43.2c0,1.322,-1.071,2.394,-2.394,2.394s-2.394,-1.072,-2.394,-2.394" fill="#E6E6E6"/>
   <circle  cx="97.32" cy="43.2" fill="#383838" r="1.197"/>
  </g>
  <g  id="A14pin">
   <path  d="M102.126,14.4c0,-1.322,1.071,-2.394,2.394,-2.394c1.321,0,2.394,1.072,2.394,2.394" fill="#BFBFBF"/>
   <path  d="M106.914,14.4c0,1.322,-1.072,2.394,-2.394,2.394c-1.322,0,-2.394,-1.071,-2.394,-2.394l0,0" fill="#E6E6E6"/>
   <circle  cx="104.52" cy="14.4" fill="#383838" r="1.197"/>
  </g>
  <g  id="B14pin">
   <path  d="M102.126,21.6c0,-1.322,1.071,-2.394,2.394,-2.394c1.321,0,2.394,1.072,2.394,2.394" fill="#BFBFBF"/>
   <path  d="M106.914,21.6c0,1.322,-1.072,2.394,-2.394,2.394c-1.322,0,-2.394,-1.072,-2.394,-2.394" fill="#E6E6E6"/>
   <circle  cx="104.52" cy="21.6" fill="#383838" r="1.197"/>
  </g>
  <g  id="C14pin">
   <path  d="M102.126,28.8c0,-1.322,1.071,-2.394,2.394,-2.394c1.321,0,2.394,1.072,2.394,2.394" fill="#BFBFBF"/>
   <path  d="M106.914,28.8c0,1.322,-1.072,2.394,-2.394,2.394c-1.322,0,-2.394,-1.071,-2.394,-2.394l0,0" fill="#E6E6E6"/>
   <circle  cx="104.52" cy="28.8" fill="#383838" r="1.197"/>
  </g>
  <g  id="D14pin">
   <path  d="M102.126,36c0,-1.322,1.071,-2.394,2.394,-2.394c1.321,0,2.394,1.072,2.394,2.394" fill="#BFBFBF"/>
   <path  d="M106.914,36c0,1.322,-1.072,2.394,-2.394,2.394c-1.322,0,-2.394,-1.072,-2.394,-2.394" fill="#E6E6E6"/>
   <circle  cx="104.52" cy="36" fill="#383838" r="1.197"/>
  </g>
  <g  id="E14pin">
   <path  d="M102.126,43.2c0,-1.322,1.071,-2.394,2.394,-2.394c1.321,0,2.394,1.071,2.394,2.394" fill="#BFBFBF"/>
   <path  d="M106.914,43.2c0,1.322,-1.072,2.394,-2.394,2.394c-1.322,0,-2.394,-1.072,-2.394,-2.394" fill="#E6E6E6"/>
   <circle  cx="104.52" cy="43.2" fill="#383838" r="1.197"/>
  </g>
  <g  id="A15pin">
   <path  d="M109.326,14.4c0.002,-1.322,1.076,-2.392,2.398,-2.39c1.318,0.002,2.387,1.071,2.389,2.39" fill="#BFBFBF"/>
   <path  d="M114.113,14.4c0.002,1.322,-1.067,2.396,-2.389,2.397c-1.322,0.002,-2.396,-1.068,-2.398,-2.39c0,-0.002,0,-0.005,0,-0.007" fill="#E6E6E6"/>
   <circle  cx="111.72" cy="14.4" fill="#383838" r="1.197"/>
  </g>
  <g  id="B15pin">
   <path  d="M109.326,21.6c0.002,-1.322,1.076,-2.392,2.398,-2.39c1.318,0.002,2.387,1.071,2.389,2.39" fill="#BFBFBF"/>
   <path  d="M114.113,21.6c0.002,1.322,-1.067,2.395,-2.389,2.397c-1.322,0.002,-2.396,-1.068,-2.398,-2.39c0,-0.002,0,-0.005,0,-0.007" fill="#E6E6E6"/>
   <circle  cx="111.72" cy="21.6" fill="#383838" r="1.197"/>
  </g>
  <g  id="C15pin">
   <path  d="M109.326,28.8c0.002,-1.322,1.076,-2.392,2.398,-2.39c1.318,0.002,2.387,1.071,2.389,2.39" fill="#BFBFBF"/>
   <path  d="M114.113,28.8c0.002,1.322,-1.067,2.396,-2.389,2.397c-1.322,0.002,-2.396,-1.068,-2.398,-2.39c0,-0.002,0,-0.005,0,-0.007" fill="#E6E6E6"/>
   <circle  cx="111.72" cy="28.8" fill="#383838" r="1.197"/>
  </g>
  <g  id="D15pin">
   <path  d="M109.326,36c0.002,-1.322,1.076,-2.392,2.398,-2.39c1.318,0.002,2.387,1.071,2.389,2.39" fill="#BFBFBF"/>
   <path  d="M114.113,36c0.002,1.322,-1.067,2.395,-2.389,2.397c-1.322,0.002,-2.396,-1.068,-2.398,-2.39c0,-0.002,0,-0.005,0,-0.007" fill="#E6E6E6"/>
   <circle  cx="111.72" cy="36" fill="#383838" r="1.197"/>
  </g>
  <g  id="E15pin">
   <path  d="M109.326,43.2c0.002,-1.322,1.076,-2.392,2.398,-2.39c1.318,0.002,2.387,1.071,2.389,2.39" fill="#BFBFBF"/>
   <path  d="M114.113,43.2c0.002,1.322,-1.067,2.395,-2.389,2.397c-1.322,0.002,-2.396,-1.068,-2.398,-2.39c0,-0.002,0,-0.005,0,-0.007" fill="#E6E6E6"/>
   <circle  cx="111.72" cy="43.2" fill="#383838" r="1.197"/>
  </g>
  <g  id="A16pin">
   <path  d="M116.527,14.4c0.002,-1.322,1.074,-2.392,2.396,-2.39c1.319,0.002,2.389,1.071,2.391,2.39" fill="#BFBFBF"/>
   <path  d="M121.314,14.4c0.002,1.322,-1.068,2.396,-2.391,2.397s-2.395,-1.068,-2.396,-2.39c0,-0.002,0,-0.005,0,-0.007" fill="#E6E6E6"/>
   <circle  cx="118.919" cy="14.4" fill="#383838" r="1.197"/>
  </g>
  <g  id="B16pin">
   <path  d="M116.527,21.6c0.002,-1.322,1.074,-2.392,2.396,-2.39c1.319,0.002,2.389,1.071,2.391,2.39" fill="#BFBFBF"/>
   <path  d="M121.314,21.6c0.002,1.322,-1.068,2.395,-2.391,2.397s-2.395,-1.068,-2.396,-2.39c0,-0.002,0,-0.005,0,-0.007" fill="#E6E6E6"/>
   <circle  cx="118.919" cy="21.6" fill="#383838" r="1.197"/>
  </g>
  <g  id="C16pin">
   <path  d="M116.527,28.8c0.002,-1.322,1.074,-2.392,2.396,-2.39c1.319,0.002,2.389,1.071,2.391,2.39" fill="#BFBFBF"/>
   <path  d="M121.314,28.8c0.002,1.322,-1.068,2.396,-2.391,2.397s-2.395,-1.068,-2.396,-2.39c0,-0.002,0,-0.005,0,-0.007" fill="#E6E6E6"/>
   <circle  cx="118.919" cy="28.8" fill="#383838" r="1.197"/>
  </g>
  <g  id="D16pin">
   <path  d="M116.527,36c0.002,-1.322,1.074,-2.392,2.396,-2.39c1.319,0.002,2.389,1.071,2.391,2.39" fill="#BFBFBF"/>
   <path  d="M121.314,36c0.002,1.322,-1.068,2.395,-2.391,2.397c-1.322,0.002,-2.395,-1.068,-2.396,-2.39c0,-0.002,0,-0.005,0,-0.007" fill="#E6E6E6"/>
   <circle  cx="118.919" cy="36" fill="#383838" r="1.197"/>
  </g>
  <g  id="E16pin">
   <path  d="M116.527,43.2c0.002,-1.322,1.074,-2.392,2.396,-2.39c1.319,0.002,2.389,1.071,2.391,2.39" fill="#BFBFBF"/>
   <path  d="M121.314,43.2c0.002,1.322,-1.068,2.395,-2.391,2.397s-2.395,-1.068,-2.396,-2.39c0,-0.002,0,-0.005,0,-0.007" fill="#E6E6E6"/>
   <circle  cx="118.919" cy="43.2" fill="#383838" r="1.197"/>
  </g>
  <g  id="A17pin">
   <path  d="M123.726,14.4c0.002,-1.322,1.075,-2.392,2.397,-2.39c1.319,0.002,2.388,1.071,2.39,2.39" fill="#BFBFBF"/>
   <path  d="M128.513,14.4c0.002,1.322,-1.068,2.396,-2.39,2.397c-1.322,0.002,-2.396,-1.068,-2.397,-2.39c0,-0.002,0,-0.005,0,-0.007" fill="#E6E6E6"/>
   <circle  cx="126.12" cy="14.4" fill="#383838" r="1.197"/>
  </g>
  <g  id="B17pin">
   <path  d="M123.726,21.6c0.002,-1.322,1.075,-2.392,2.397,-2.39c1.319,0.002,2.388,1.071,2.39,2.39" fill="#BFBFBF"/>
   <path  d="M128.513,21.6c0.002,1.322,-1.068,2.395,-2.39,2.397c-1.322,0.002,-2.396,-1.068,-2.397,-2.39c0,-0.002,0,-0.005,0,-0.007" fill="#E6E6E6"/>
   <circle  cx="126.12" cy="21.6" fill="#383838" r="1.197"/>
  </g>
  <g  id="C17pin">
   <path  d="M123.726,28.8c0.002,-1.322,1.075,-2.392,2.397,-2.39c1.319,0.002,2.388,1.071,2.39,2.39" fill="#BFBFBF"/>
   <path  d="M128.513,28.8c0.002,1.322,-1.068,2.396,-2.39,2.397c-1.322,0.002,-2.396,-1.068,-2.397,-2.39c0,-0.002,0,-0.005,0,-0.007" fill="#E6E6E6"/>
   <circle  cx="126.12" cy="28.8" fill="#383838" r="1.197"/>
  </g>
  <g  id="D17pin">
   <path  d="M123.726,36c0.002,-1.322,1.075,-2.392,2.397,-2.39c1.319,0.002,2.388,1.071,2.39,2.39" fill="#BFBFBF"/>
   <path  d="M128.513,36c0.002,1.322,-1.068,2.395,-2.39,2.397c-1.322,0.002,-2.396,-1.068,-2.397,-2.39c0,-0.002,0,-0.005,0,-0.007" fill="#E6E6E6"/>
   <circle  cx="126.12" cy="36" fill="#383838" r="1.197"/>
  </g>
  <g  id="E17pin">
   <path  d="M123.726,43.2c0.002,-1.322,1.075,-2.392,2.397,-2.39c1.319,0.002,2.388,1.071,2.39,2.39" fill="#BFBFBF"/>
   <path  d="M128.513,43.2c0.002,1.322,-1.068,2.395,-2.39,2.397c-1.322,0.002,-2.396,-1.068,-2.397,-2.39c0,-0.002,0,-0.005,0,-0.007" fill="#E6E6E6"/>
   <circle  cx="126.12" cy="43.2" fill="#383838" r="1.197"/>
  </g>
  <g  id="A18pin">
   <path  d="M130.926,14.4c0.002,-1.322,1.075,-2.392,2.397,-2.39c1.318,0.002,2.388,1.071,2.39,2.39" fill="#BFBFBF"/>
   <path  d="M135.713,14.4c0.002,1.322,-1.067,2.396,-2.39,2.397s-2.396,-1.068,-2.397,-2.39c0,-0.002,0,-0.005,0,-0.007" fill="#E6E6E6"/>
   <circle  cx="133.32" cy="14.4" fill="#383838" r="1.197"/>
  </g>
  <g  id="B18pin">
   <path  d="M130.926,21.6c0.002,-1.322,1.075,-2.392,2.397,-2.39c1.318,0.002,2.388,1.071,2.39,2.39" fill="#BFBFBF"/>
   <path  d="M135.713,21.6c0.002,1.322,-1.067,2.395,-2.39,2.397s-2.396,-1.068,-2.397,-2.39c0,-0.002,0,-0.005,0,-0.007" fill="#E6E6E6"/>
   <circle  cx="133.32" cy="21.6" fill="#383838" r="1.197"/>
  </g>
  <g  id="C18pin">
   <path  d="M130.926,28.8c0.002,-1.322,1.075,-2.392,2.397,-2.39c1.318,0.002,2.388,1.071,2.39,2.39" fill="#BFBFBF"/>
   <path  d="M135.713,28.8c0.002,1.322,-1.067,2.396,-2.39,2.397s-2.396,-1.068,-2.397,-2.39c0,-0.002,0,-0.005,0,-0.007" fill="#E6E6E6"/>
   <circle  cx="133.32" cy="28.8" fill="#383838" r="1.197"/>
  </g>
  <g  id="D18pin">
   <path  d="M130.926,36c0.002,-1.322,1.075,-2.392,2.397,-2.39c1.318,0.002,2.388,1.071,2.39,2.39" fill="#BFBFBF"/>
   <path  d="M135.713,36c0.002,1.322,-1.067,2.395,-2.39,2.397c-1.322,0.002,-2.396,-1.068,-2.397,-2.39c0,-0.002,0,-0.005,0,-0.007" fill="#E6E6E6"/>
   <circle  cx="133.32" cy="36" fill="#383838" r="1.197"/>
  </g>
  <g  id="E18pin">
   <path  d="M130.926,43.2c0.002,-1.322,1.075,-2.392,2.397,-2.39c1.318,0.002,2.388,1.071,2.39,2.39" fill="#BFBFBF"/>
   <path  d="M135.713,43.2c0.002,1.322,-1.067,2.395,-2.39,2.397s-2.396,-1.068,-2.397,-2.39c0,-0.002,0,-0.005,0,-0.007" fill="#E6E6E6"/>
   <circle  cx="133.32" cy="43.2" fill="#383838" r="1.197"/>
  </g>
  <g  id="A19pin">
   <path  d="M138.126,14.4c0.002,-1.322,1.075,-2.392,2.396,-2.39c1.319,0.002,2.389,1.071,2.391,2.39" fill="#BFBFBF"/>
   <path  d="M142.914,14.4c0.002,1.322,-1.068,2.396,-2.391,2.397c-1.321,0.002,-2.395,-1.068,-2.396,-2.39c0,-0.002,0,-0.005,0,-0.007" fill="#E6E6E6"/>
   <circle  cx="140.52" cy="14.4" fill="#383838" r="1.197"/>
  </g>
  <g  id="B19pin">
   <path  d="M138.126,21.6c0.002,-1.322,1.075,-2.392,2.396,-2.39c1.319,0.002,2.389,1.071,2.391,2.39" fill="#BFBFBF"/>
   <path  d="M142.914,21.6c0.002,1.322,-1.068,2.395,-2.391,2.397c-1.321,0.002,-2.395,-1.068,-2.396,-2.39c0,-0.002,0,-0.005,0,-0.007" fill="#E6E6E6"/>
   <circle  cx="140.52" cy="21.6" fill="#383838" r="1.197"/>
  </g>
  <g  id="C19pin">
   <path  d="M138.126,28.8c0.002,-1.322,1.075,-2.392,2.396,-2.39c1.319,0.002,2.389,1.071,2.391,2.39" fill="#BFBFBF"/>
   <path  d="M142.914,28.8c0.002,1.322,-1.068,2.396,-2.391,2.397c-1.321,0.002,-2.395,-1.068,-2.396,-2.39c0,-0.002,0,-0.005,0,-0.007" fill="#E6E6E6"/>
   <circle  cx="140.52" cy="28.8" fill="#383838" r="1.197"/>
  </g>
  <g  id="D19pin">
   <path  d="M138.126,36c0.002,-1.322,1.075,-2.392,2.396,-2.39c1.319,0.002,2.389,1.071,2.391,2.39" fill="#BFBFBF"/>
   <path  d="M142.914,36c0.002,1.322,-1.068,2.395,-2.391,2.397c-1.321,0.002,-2.395,-1.068,-2.396,-2.39c0,-0.002,0,-0.005,0,-0.007" fill="#E6E6E6"/>
   <circle  cx="140.52" cy="36" fill="#383838" r="1.197"/>
  </g>
  <g  id="E19pin">
   <path  d="M138.126,43.2c0.002,-1.322,1.075,-2.392,2.396,-2.39c1.319,0.002,2.389,1.071,2.391,2.39" fill="#BFBFBF"/>
   <path  d="M142.914,43.2c0.002,1.322,-1.068,2.395,-2.391,2.397c-1.321,0.002,-2.395,-1.068,-2.396,-2.39c0,-0.002,0,-0.005,0,-0.007" fill="#E6E6E6"/>
   <circle  cx="140.52" cy="43.2" fill="#383838" r="1.197"/>
  </g>
  <g  id="A20pin">
   <path  d="M145.326,14.4c0.002,-1.322,1.076,-2.392,2.397,-2.39c1.319,0.002,2.388,1.071,2.39,2.39" fill="#BFBFBF"/>
   <path  d="M150.113,14.4c0.002,1.322,-1.067,2.396,-2.39,2.397c-1.321,0.002,-2.396,-1.068,-2.397,-2.39c0,-0.002,0,-0.005,0,-0.007" fill="#E6E6E6"/>
   <circle  cx="147.72" cy="14.4" fill="#383838" r="1.197"/>
  </g>
  <g  id="B20pin">
   <path  d="M145.326,21.6c0.002,-1.322,1.076,-2.392,2.397,-2.39c1.319,0.002,2.388,1.071,2.39,2.39" fill="#BFBFBF"/>
   <path  d="M150.113,21.6c0.002,1.322,-1.067,2.395,-2.39,2.397c-1.321,0.002,-2.396,-1.068,-2.397,-2.39c0,-0.002,0,-0.005,0,-0.007" fill="#E6E6E6"/>
   <circle  cx="147.72" cy="21.6" fill="#383838" r="1.197"/>
  </g>
  <g  id="C20pin">
   <path  d="M145.326,28.8c0.002,-1.322,1.076,-2.392,2.397,-2.39c1.319,0.002,2.388,1.071,2.39,2.39" fill="#BFBFBF"/>
   <path  d="M150.113,28.8c0.002,1.322,-1.067,2.396,-2.39,2.397c-1.321,0.002,-2.396,-1.068,-2.397,-2.39c0,-0.002,0,-0.005,0,-0.007" fill="#E6E6E6"/>
   <circle  cx="147.72" cy="28.8" fill="#383838" r="1.197"/>
  </g>
  <g  id="D20pin">
   <path  d="M145.326,36c0.002,-1.322,1.076,-2.392,2.397,-2.39c1.319,0.002,2.388,1.071,2.39,2.39" fill="#BFBFBF"/>
   <path  d="M150.113,36c0.002,1.322,-1.067,2.395,-2.39,2.397c-1.321,0.002,-2.396,-1.068,-2.397,-2.39c0,-0.002,0,-0.005,0,-0.007" fill="#E6E6E6"/>
   <circle  cx="147.72" cy="36" fill="#383838" r="1.197"/>
  </g>
  <g  id="E20pin">
   <path  d="M145.326,43.2c0.002,-1.322,1.076,-2.392,2.397,-2.39c1.319,0.002,2.388,1.071,2.39,2.39" fill="#BFBFBF"/>
   <path  d="M150.113,43.2c0.002,1.322,-1.067,2.395,-2.39,2.397c-1.321,0.002,-2.396,-1.068,-2.397,-2.39c0,-0.002,0,-0.005,0,-0.007" fill="#E6E6E6"/>
   <circle  cx="147.72" cy="43.2" fill="#383838" r="1.197"/>
  </g>
  <g  id="F1pin">
   <path  d="M8.526,64.8c0,-1.321,1.072,-2.394,2.394,-2.394s2.394,1.072,2.394,2.394" fill="#BFBFBF"/>
   <path  d="M13.313,64.8c0,1.322,-1.072,2.394,-2.394,2.394S8.526,66.122,8.526,64.8l0,0" fill="#E6E6E6"/>
   <circle  cx="10.92" cy="64.8" fill="#383838" r="1.196"/>
  </g>
  <g  id="G1pin">
   <path  d="M8.526,72c0,-1.322,1.072,-2.394,2.394,-2.394s2.394,1.071,2.394,2.394" fill="#BFBFBF"/>
   <path  d="M13.313,72c0,1.322,-1.072,2.394,-2.394,2.394S8.526,73.322,8.526,72l0,0" fill="#E6E6E6"/>
   <circle  cx="10.92" cy="72" fill="#383838" r="1.197"/>
  </g>
  <g  id="H1pin">
   <path  d="M8.526,79.2c0,-1.322,1.072,-2.394,2.394,-2.394s2.394,1.071,2.394,2.394" fill="#BFBFBF"/>
   <path  d="M13.313,79.2c0,1.321,-1.072,2.394,-2.394,2.394S8.526,80.521,8.526,79.2" fill="#E6E6E6"/>
   <circle  cx="10.92" cy="79.2" fill="#383838" r="1.197"/>
  </g>
  <g  id="I1pin">
   <path  d="M8.526,86.4c0,-1.322,1.072,-2.395,2.394,-2.395s2.394,1.072,2.394,2.395" fill="#BFBFBF"/>
   <path  d="M13.313,86.4c0,1.321,-1.072,2.393,-2.394,2.393S8.526,87.722,8.526,86.4l0,0" fill="#E6E6E6"/>
   <circle  cx="10.92" cy="86.4" fill="#383838" r="1.197"/>
  </g>
  <g  id="J1pin">
   <path  d="M8.526,93.6c0,-1.322,1.072,-2.394,2.394,-2.394s2.394,1.071,2.394,2.394" fill="#BFBFBF"/>
   <path  d="M13.313,93.6c0,1.322,-1.072,2.395,-2.394,2.395S8.526,94.922,8.526,93.6l0,0" fill="#E6E6E6"/>
   <circle  cx="10.92" cy="93.6" fill="#383838" r="1.197"/>
  </g>
  <g  id="F2pin">
   <path  d="M15.727,64.8c0,-1.321,1.071,-2.394,2.394,-2.394c1.322,0,2.394,1.072,2.394,2.394" fill="#BFBFBF"/>
   <path  d="M20.514,64.8c0,1.322,-1.07,2.395,-2.393,2.396c-1.322,0,-2.394,-1.07,-2.395,-2.393c0,-0.001,0,-0.002,0,-0.003" fill="#E6E6E6"/>
   <circle  cx="18.12" cy="64.8" fill="#383838" r="1.196"/>
  </g>
  <g  id="G2pin">
   <path  d="M15.727,72c0,-1.322,1.071,-2.394,2.394,-2.394c1.322,0,2.394,1.071,2.394,2.394" fill="#BFBFBF"/>
   <path  d="M20.514,72c0,1.322,-1.07,2.395,-2.393,2.395c-1.322,0.001,-2.394,-1.07,-2.395,-2.393c0,0,0,-0.001,0,-0.002" fill="#E6E6E6"/>
   <circle  cx="18.12" cy="72" fill="#383838" r="1.197"/>
  </g>
  <g  id="H2pin">
   <path  d="M15.727,79.2c0,-1.322,1.071,-2.394,2.394,-2.394c1.322,0,2.394,1.071,2.394,2.394" fill="#BFBFBF"/>
   <path  d="M20.514,79.2c0,1.321,-1.07,2.394,-2.393,2.395c-1.322,0.001,-2.394,-1.07,-2.395,-2.392c0,-0.002,0,-0.002,0,-0.003" fill="#E6E6E6"/>
   <circle  cx="18.12" cy="79.2" fill="#383838" r="1.197"/>
  </g>
  <g  id="I2pin">
   <path  d="M15.727,86.4c0,-1.322,1.071,-2.395,2.394,-2.395c1.322,0,2.394,1.072,2.394,2.395" fill="#BFBFBF"/>
   <path  d="M20.514,86.4c0,1.321,-1.07,2.394,-2.393,2.395c-1.322,0,-2.394,-1.07,-2.395,-2.393L15.726,86.4" fill="#E6E6E6"/>
   <circle  cx="18.12" cy="86.4" fill="#383838" r="1.197"/>
  </g>
  <g  id="J2pin">
   <path  d="M15.727,93.6c0,-1.322,1.071,-2.394,2.394,-2.394c1.322,0,2.394,1.071,2.394,2.394" fill="#BFBFBF"/>
   <path  d="M20.514,93.6c0,1.322,-1.07,2.395,-2.393,2.396c-1.322,0.001,-2.394,-1.071,-2.395,-2.393c0,-0.001,0,-0.002,0,-0.003" fill="#E6E6E6"/>
   <circle  cx="18.12" cy="93.6" fill="#383838" r="1.197"/>
  </g>
  <g  id="F3pin">
   <path  d="M22.926,64.8c0,-1.321,1.072,-2.394,2.394,-2.394c1.322,0,2.394,1.072,2.394,2.394" fill="#BFBFBF"/>
   <path  d="M27.713,64.8c0,1.322,-1.071,2.394,-2.394,2.394c-1.322,0,-2.394,-1.071,-2.394,-2.394" fill="#E6E6E6"/>
   <circle  cx="25.32" cy="64.8" fill="#383838" r="1.196"/>
  </g>
  <g  id="G3pin">
   <path  d="M22.926,72c0,-1.322,1.072,-2.394,2.394,-2.394c1.322,0,2.394,1.071,2.394,2.394" fill="#BFBFBF"/>
   <path  d="M27.713,72c0,1.322,-1.071,2.394,-2.394,2.394c-1.322,0,-2.394,-1.071,-2.394,-2.394" fill="#E6E6E6"/>
   <circle  cx="25.32" cy="72" fill="#383838" r="1.197"/>
  </g>
  <g  id="H3pin">
   <path  d="M22.926,79.2c0,-1.322,1.072,-2.394,2.394,-2.394c1.322,0,2.394,1.071,2.394,2.394" fill="#BFBFBF"/>
   <path  d="M27.713,79.2c0,1.321,-1.071,2.394,-2.394,2.394c-1.322,0,-2.394,-1.072,-2.394,-2.394l0,0" fill="#E6E6E6"/>
   <circle  cx="25.32" cy="79.2" fill="#383838" r="1.197"/>
  </g>
  <g  id="I3pin">
   <path  d="M22.926,86.4c0,-1.322,1.072,-2.395,2.394,-2.395c1.322,0,2.394,1.072,2.394,2.395" fill="#BFBFBF"/>
   <path  d="M27.713,86.4c0,1.321,-1.071,2.393,-2.394,2.393c-1.322,0,-2.394,-1.071,-2.394,-2.393" fill="#E6E6E6"/>
   <circle  cx="25.32" cy="86.4" fill="#383838" r="1.197"/>
  </g>
  <g  id="J3pin">
   <path  d="M22.926,93.6c0,-1.322,1.072,-2.394,2.394,-2.394c1.322,0,2.394,1.071,2.394,2.394" fill="#BFBFBF"/>
   <path  d="M27.713,93.6c0,1.322,-1.071,2.395,-2.394,2.395c-1.322,0,-2.394,-1.072,-2.394,-2.395l0,0" fill="#E6E6E6"/>
   <circle  cx="25.32" cy="93.6" fill="#383838" r="1.197"/>
  </g>
  <g  id="F4pin">
   <path  d="M30.126,64.8c0,-1.321,1.072,-2.394,2.394,-2.394s2.394,1.072,2.394,2.394" fill="#BFBFBF"/>
   <path  d="M34.914,64.8c0,1.322,-1.072,2.394,-2.394,2.394s-2.394,-1.071,-2.394,-2.394" fill="#E6E6E6"/>
   <circle  cx="32.52" cy="64.8" fill="#383838" r="1.196"/>
  </g>
  <g  id="G4pin">
   <path  d="M30.126,72c0,-1.322,1.072,-2.394,2.394,-2.394s2.394,1.071,2.394,2.394" fill="#BFBFBF"/>
   <path  d="M34.914,72c0,1.322,-1.072,2.394,-2.394,2.394S30.126,73.322,30.126,72" fill="#E6E6E6"/>
   <circle  cx="32.52" cy="72" fill="#383838" r="1.197"/>
  </g>
  <g  id="H4pin">
   <path  d="M30.126,79.2c0,-1.322,1.072,-2.394,2.394,-2.394s2.394,1.071,2.394,2.394" fill="#BFBFBF"/>
   <path  d="M34.914,79.2c0,1.321,-1.072,2.394,-2.394,2.394s-2.394,-1.072,-2.394,-2.394l0,0" fill="#E6E6E6"/>
   <circle  cx="32.52" cy="79.2" fill="#383838" r="1.197"/>
  </g>
  <g  id="I4pin">
   <path  d="M30.126,86.4c0,-1.322,1.072,-2.395,2.394,-2.395s2.394,1.072,2.394,2.395" fill="#BFBFBF"/>
   <path  d="M34.914,86.4c0,1.321,-1.072,2.393,-2.394,2.393s-2.394,-1.071,-2.394,-2.393" fill="#E6E6E6"/>
   <circle  cx="32.52" cy="86.4" fill="#383838" r="1.197"/>
  </g>
  <g  id="J4pin">
   <path  d="M30.126,93.6c0,-1.322,1.072,-2.394,2.394,-2.394s2.394,1.071,2.394,2.394" fill="#BFBFBF"/>
   <path  d="M34.914,93.6c0,1.322,-1.072,2.395,-2.394,2.395s-2.394,-1.072,-2.394,-2.395l0,0" fill="#E6E6E6"/>
   <circle  cx="32.52" cy="93.6" fill="#383838" r="1.197"/>
  </g>
  <g  id="F5pin">
   <path  d="M37.326,64.8c0,-1.321,1.072,-2.394,2.394,-2.394c1.322,0,2.394,1.072,2.394,2.394" fill="#BFBFBF"/>
   <path  d="M42.114,64.8c0,1.322,-1.072,2.394,-2.394,2.394c-1.322,0,-2.394,-1.071,-2.394,-2.394" fill="#E6E6E6"/>
   <circle  cx="39.72" cy="64.8" fill="#383838" r="1.196"/>
  </g>
  <g  id="G5pin">
   <path  d="M37.326,72c0,-1.322,1.072,-2.394,2.394,-2.394c1.322,0,2.394,1.071,2.394,2.394" fill="#BFBFBF"/>
   <path  d="M42.114,72c0,1.322,-1.072,2.394,-2.394,2.394c-1.322,0,-2.394,-1.071,-2.394,-2.394" fill="#E6E6E6"/>
   <circle  cx="39.72" cy="72" fill="#383838" r="1.197"/>
  </g>
  <g  id="H5pin">
   <path  d="M37.326,79.2c0,-1.322,1.072,-2.394,2.394,-2.394c1.322,0,2.394,1.071,2.394,2.394" fill="#BFBFBF"/>
   <path  d="M42.114,79.2c0,1.321,-1.072,2.394,-2.394,2.394c-1.322,0,-2.394,-1.072,-2.394,-2.394l0,0" fill="#E6E6E6"/>
   <circle  cx="39.72" cy="79.2" fill="#383838" r="1.197"/>
  </g>
  <g  id="I5pin">
   <path  d="M37.326,86.4c0,-1.322,1.072,-2.395,2.394,-2.395c1.322,0,2.394,1.072,2.394,2.395" fill="#BFBFBF"/>
   <path  d="M42.114,86.4c0,1.321,-1.072,2.393,-2.394,2.393c-1.322,0,-2.394,-1.071,-2.394,-2.393" fill="#E6E6E6"/>
   <circle  cx="39.72" cy="86.4" fill="#383838" r="1.197"/>
  </g>
  <g  id="J5pin">
   <path  d="M37.326,93.6c0,-1.322,1.072,-2.394,2.394,-2.394c1.322,0,2.394,1.071,2.394,2.394" fill="#BFBFBF"/>
   <path  d="M42.114,93.6c0,1.322,-1.072,2.395,-2.394,2.395c-1.322,0,-2.394,-1.072,-2.394,-2.395l0,0" fill="#E6E6E6"/>
   <circle  cx="39.72" cy="93.6" fill="#383838" r="1.197"/>
  </g>
  <g  id="F6pin">
   <path  d="M44.526,64.8c0,-1.321,1.072,-2.394,2.394,-2.394s2.394,1.072,2.394,2.394" fill="#BFBFBF"/>
   <path  d="M49.313,64.8c0,1.322,-1.072,2.394,-2.394,2.394s-2.394,-1.071,-2.394,-2.394" fill="#E6E6E6"/>
   <circle  cx="46.92" cy="64.8" fill="#383838" r="1.196"/>
  </g>
  <g  id="G6pin">
   <path  d="M44.526,72c0,-1.322,1.072,-2.394,2.394,-2.394s2.394,1.071,2.394,2.394" fill="#BFBFBF"/>
   <path  d="M49.313,72c0,1.322,-1.072,2.394,-2.394,2.394S44.526,73.322,44.526,72" fill="#E6E6E6"/>
   <circle  cx="46.92" cy="72" fill="#383838" r="1.197"/>
  </g>
  <g  id="H6pin">
   <path  d="M44.526,79.2c0,-1.322,1.072,-2.394,2.394,-2.394s2.394,1.071,2.394,2.394" fill="#BFBFBF"/>
   <path  d="M49.313,79.2c0,1.321,-1.072,2.394,-2.394,2.394s-2.394,-1.072,-2.394,-2.394l0,0" fill="#E6E6E6"/>
   <circle  cx="46.92" cy="79.2" fill="#383838" r="1.197"/>
  </g>
  <g  id="I6pin">
   <path  d="M44.526,86.4c0,-1.322,1.072,-2.395,2.394,-2.395s2.394,1.072,2.394,2.395" fill="#BFBFBF"/>
   <path  d="M49.313,86.4c0,1.321,-1.072,2.393,-2.394,2.393s-2.394,-1.071,-2.394,-2.393" fill="#E6E6E6"/>
   <circle  cx="46.92" cy="86.4" fill="#383838" r="1.197"/>
  </g>
  <g  id="J6pin">
   <path  d="M44.526,93.6c0,-1.322,1.072,-2.394,2.394,-2.394s2.394,1.071,2.394,2.394" fill="#BFBFBF"/>
   <path  d="M49.313,93.6c0,1.322,-1.072,2.395,-2.394,2.395s-2.394,-1.072,-2.394,-2.395l0,0" fill="#E6E6E6"/>
   <circle  cx="46.92" cy="93.6" fill="#383838" r="1.197"/>
  </g>
  <g  id="F7pin">
   <path  d="M51.727,64.8c0,-1.321,1.071,-2.394,2.394,-2.394c1.322,0,2.394,1.072,2.394,2.394" fill="#BFBFBF"/>
   <path  d="M56.514,64.8c0,1.322,-1.072,2.394,-2.394,2.394c-1.322,0,-2.394,-1.071,-2.394,-2.394" fill="#E6E6E6"/>
   <circle  cx="54.12" cy="64.8" fill="#383838" r="1.196"/>
  </g>
  <g  id="G7pin">
   <path  d="M51.727,72c0,-1.322,1.071,-2.394,2.394,-2.394c1.322,0,2.394,1.071,2.394,2.394" fill="#BFBFBF"/>
   <path  d="M56.514,72c0,1.322,-1.072,2.394,-2.394,2.394c-1.322,0,-2.394,-1.071,-2.394,-2.394" fill="#E6E6E6"/>
   <circle  cx="54.12" cy="72" fill="#383838" r="1.197"/>
  </g>
  <g  id="H7pin">
   <path  d="M51.727,79.2c0,-1.322,1.071,-2.394,2.394,-2.394c1.322,0,2.394,1.071,2.394,2.394" fill="#BFBFBF"/>
   <path  d="M56.514,79.2c0,1.321,-1.072,2.394,-2.394,2.394c-1.322,0,-2.394,-1.072,-2.394,-2.394l0,0" fill="#E6E6E6"/>
   <circle  cx="54.12" cy="79.2" fill="#383838" r="1.197"/>
  </g>
  <g  id="I7pin">
   <path  d="M51.727,86.4c0,-1.322,1.071,-2.395,2.394,-2.395c1.322,0,2.394,1.072,2.394,2.395" fill="#BFBFBF"/>
   <path  d="M56.514,86.4c0,1.321,-1.072,2.393,-2.394,2.393c-1.322,0,-2.394,-1.071,-2.394,-2.393" fill="#E6E6E6"/>
   <circle  cx="54.12" cy="86.4" fill="#383838" r="1.197"/>
  </g>
  <g  id="J7pin">
   <path  d="M51.727,93.6c0,-1.322,1.071,-2.394,2.394,-2.394c1.322,0,2.394,1.071,2.394,2.394" fill="#BFBFBF"/>
   <path  d="M56.514,93.6c0,1.322,-1.072,2.395,-2.394,2.395c-1.322,0,-2.394,-1.072,-2.394,-2.395l0,0" fill="#E6E6E6"/>
   <circle  cx="54.12" cy="93.6" fill="#383838" r="1.197"/>
  </g>
  <g  id="F8pin">
   <path  d="M58.926,64.8c0,-1.321,1.072,-2.394,2.394,-2.394c1.322,0,2.394,1.072,2.394,2.394" fill="#BFBFBF"/>
   <path  d="M63.713,64.8c0,1.322,-1.071,2.394,-2.394,2.394c-1.322,0,-2.394,-1.071,-2.394,-2.394" fill="#E6E6E6"/>
   <circle  cx="61.32" cy="64.8" fill="#383838" r="1.196"/>
  </g>
  <g  id="G8pin">
   <path  d="M58.926,72c0,-1.322,1.072,-2.394,2.394,-2.394c1.322,0,2.394,1.071,2.394,2.394" fill="#BFBFBF"/>
   <path  d="M63.713,72c0,1.322,-1.071,2.394,-2.394,2.394c-1.322,0,-2.394,-1.071,-2.394,-2.394" fill="#E6E6E6"/>
   <circle  cx="61.32" cy="72" fill="#383838" r="1.197"/>
  </g>
  <g  id="H8pin">
   <path  d="M58.926,79.2c0,-1.322,1.072,-2.394,2.394,-2.394c1.322,0,2.394,1.071,2.394,2.394" fill="#BFBFBF"/>
   <path  d="M63.713,79.2c0,1.321,-1.071,2.394,-2.394,2.394c-1.322,0,-2.394,-1.072,-2.394,-2.394l0,0" fill="#E6E6E6"/>
   <circle  cx="61.32" cy="79.2" fill="#383838" r="1.197"/>
  </g>
  <g  id="I8pin">
   <path  d="M58.926,86.4c0,-1.322,1.072,-2.395,2.394,-2.395c1.322,0,2.394,1.072,2.394,2.395" fill="#BFBFBF"/>
   <path  d="M63.713,86.4c0,1.321,-1.071,2.393,-2.394,2.393c-1.322,0,-2.394,-1.071,-2.394,-2.393" fill="#E6E6E6"/>
   <circle  cx="61.32" cy="86.4" fill="#383838" r="1.197"/>
  </g>
  <g  id="J8pin">
   <path  d="M58.926,93.6c0,-1.322,1.072,-2.394,2.394,-2.394c1.322,0,2.394,1.071,2.394,2.394" fill="#BFBFBF"/>
   <path  d="M63.713,93.6c0,1.322,-1.071,2.395,-2.394,2.395c-1.322,0,-2.394,-1.072,-2.394,-2.395l0,0" fill="#E6E6E6"/>
   <circle  cx="61.32" cy="93.6" fill="#383838" r="1.197"/>
  </g>
  <g  id="F9pin">
   <path  d="M66.126,64.8c0,-1.321,1.071,-2.394,2.394,-2.394c1.322,0,2.394,1.072,2.394,2.394" fill="#BFBFBF"/>
   <path  d="M70.914,64.8c0,1.322,-1.072,2.394,-2.394,2.394c-1.322,0,-2.394,-1.071,-2.394,-2.394" fill="#E6E6E6"/>
   <circle  cx="68.52" cy="64.8" fill="#383838" r="1.196"/>
  </g>
  <g  id="G9pin">
   <path  d="M66.126,72c0,-1.322,1.071,-2.394,2.394,-2.394c1.322,0,2.394,1.071,2.394,2.394" fill="#BFBFBF"/>
   <path  d="M70.914,72c0,1.322,-1.072,2.394,-2.394,2.394c-1.322,0,-2.394,-1.071,-2.394,-2.394" fill="#E6E6E6"/>
   <circle  cx="68.52" cy="72" fill="#383838" r="1.197"/>
  </g>
  <g  id="H9pin">
   <path  d="M66.126,79.2c0,-1.322,1.071,-2.394,2.394,-2.394c1.322,0,2.394,1.071,2.394,2.394" fill="#BFBFBF"/>
   <path  d="M70.914,79.2c0,1.321,-1.072,2.394,-2.394,2.394c-1.322,0,-2.394,-1.072,-2.394,-2.394l0,0" fill="#E6E6E6"/>
   <circle  cx="68.52" cy="79.2" fill="#383838" r="1.197"/>
  </g>
  <g  id="I9pin">
   <path  d="M66.126,86.4c0,-1.322,1.071,-2.395,2.394,-2.395c1.322,0,2.394,1.072,2.394,2.395" fill="#BFBFBF"/>
   <path  d="M70.914,86.4c0,1.321,-1.072,2.393,-2.394,2.393c-1.322,0,-2.394,-1.071,-2.394,-2.393" fill="#E6E6E6"/>
   <circle  cx="68.52" cy="86.4" fill="#383838" r="1.197"/>
  </g>
  <g  id="J9pin">
   <path  d="M66.126,93.6c0,-1.322,1.071,-2.394,2.394,-2.394c1.322,0,2.394,1.071,2.394,2.394" fill="#BFBFBF"/>
   <path  d="M70.914,93.6c0,1.322,-1.072,2.395,-2.394,2.395c-1.322,0,-2.394,-1.072,-2.394,-2.395l0,0" fill="#E6E6E6"/>
   <circle  cx="68.52" cy="93.6" fill="#383838" r="1.197"/>
  </g>
  <g  id="F10pin">
   <path  d="M73.326,64.8c0,-1.321,1.072,-2.394,2.394,-2.394c1.322,0,2.394,1.072,2.394,2.394" fill="#BFBFBF"/>
   <path  d="M78.113,64.8c0,1.322,-1.071,2.394,-2.394,2.394c-1.322,0,-2.394,-1.071,-2.394,-2.394" fill="#E6E6E6"/>
   <circle  cx="75.72" cy="64.8" fill="#383838" r="1.196"/>
  </g>
  <g  id="G10pin">
   <path  d="M73.326,72c0,-1.322,1.072,-2.394,2.394,-2.394c1.322,0,2.394,1.071,2.394,2.394" fill="#BFBFBF"/>
   <path  d="M78.113,72c0,1.322,-1.071,2.394,-2.394,2.394c-1.322,0,-2.394,-1.071,-2.394,-2.394" fill="#E6E6E6"/>
   <circle  cx="75.72" cy="72" fill="#383838" r="1.197"/>
  </g>
  <g  id="H10pin">
   <path  d="M73.326,79.2c0,-1.322,1.072,-2.394,2.394,-2.394c1.322,0,2.394,1.071,2.394,2.394" fill="#BFBFBF"/>
   <path  d="M78.113,79.2c0,1.321,-1.071,2.394,-2.394,2.394c-1.322,0,-2.394,-1.072,-2.394,-2.394l0,0" fill="#E6E6E6"/>
   <circle  cx="75.72" cy="79.2" fill="#383838" r="1.197"/>
  </g>
  <g  id="I10pin">
   <path  d="M73.326,86.4c0,-1.322,1.072,-2.395,2.394,-2.395c1.322,0,2.394,1.072,2.394,2.395" fill="#BFBFBF"/>
   <path  d="M78.113,86.4c0,1.321,-1.071,2.393,-2.394,2.393c-1.322,0,-2.394,-1.071,-2.394,-2.393" fill="#E6E6E6"/>
   <circle  cx="75.72" cy="86.4" fill="#383838" r="1.197"/>
  </g>
  <g  id="J10pin">
   <path  d="M73.326,93.6c0,-1.322,1.072,-2.394,2.394,-2.394c1.322,0,2.394,1.071,2.394,2.394" fill="#BFBFBF"/>
   <path  d="M78.113,93.6c0,1.322,-1.071,2.395,-2.394,2.395c-1.322,0,-2.394,-1.072,-2.394,-2.395l0,0" fill="#E6E6E6"/>
   <circle  cx="75.72" cy="93.6" fill="#383838" r="1.197"/>
  </g>
  <g  id="F11pin">
   <path  d="M80.527,64.8c0,-1.321,1.071,-2.394,2.393,-2.394c1.322,0,2.395,1.072,2.395,2.394" fill="#BFBFBF"/>
   <path  d="M85.314,64.8c0,1.322,-1.072,2.394,-2.395,2.394c-1.321,0,-2.393,-1.071,-2.393,-2.394" fill="#E6E6E6"/>
   <circle  cx="82.919" cy="64.8" fill="#383838" r="1.196"/>
  </g>
  <g  id="G11pin">
   <path  d="M80.527,72c0,-1.322,1.071,-2.394,2.393,-2.394c1.322,0,2.395,1.071,2.395,2.394" fill="#BFBFBF"/>
   <path  d="M85.314,72c0,1.322,-1.072,2.394,-2.395,2.394c-1.321,0,-2.393,-1.071,-2.393,-2.394" fill="#E6E6E6"/>
   <circle  cx="82.919" cy="72" fill="#383838" r="1.197"/>
  </g>
  <g  id="H11pin">
   <path  d="M80.527,79.2c0,-1.322,1.071,-2.394,2.393,-2.394c1.322,0,2.395,1.071,2.395,2.394" fill="#BFBFBF"/>
   <path  d="M85.314,79.2c0,1.321,-1.072,2.394,-2.395,2.394c-1.321,0,-2.393,-1.072,-2.393,-2.394l0,0" fill="#E6E6E6"/>
   <circle  cx="82.919" cy="79.2" fill="#383838" r="1.197"/>
  </g>
  <g  id="I11pin">
   <path  d="M80.527,86.4c0,-1.322,1.071,-2.395,2.393,-2.395c1.322,0,2.395,1.072,2.395,2.395" fill="#BFBFBF"/>
   <path  d="M85.314,86.4c0,1.321,-1.072,2.393,-2.395,2.393c-1.321,0,-2.393,-1.071,-2.393,-2.393" fill="#E6E6E6"/>
   <circle  cx="82.919" cy="86.4" fill="#383838" r="1.197"/>
  </g>
  <g  id="J11pin">
   <path  d="M80.527,93.6c0,-1.322,1.071,-2.394,2.393,-2.394c1.322,0,2.395,1.071,2.395,2.394" fill="#BFBFBF"/>
   <path  d="M85.314,93.6c0,1.322,-1.072,2.395,-2.395,2.395c-1.321,0,-2.393,-1.072,-2.393,-2.395l0,0" fill="#E6E6E6"/>
   <circle  cx="82.919" cy="93.6" fill="#383838" r="1.197"/>
  </g>
  <g  id="F12pin">
   <path  d="M87.726,64.8c0,-1.321,1.072,-2.394,2.394,-2.394c1.322,0,2.394,1.072,2.394,2.394" fill="#BFBFBF"/>
   <path  d="M92.513,64.8c0,1.322,-1.071,2.394,-2.394,2.394c-1.321,0,-2.394,-1.071,-2.394,-2.394" fill="#E6E6E6"/>
   <circle  cx="90.12" cy="64.8" fill="#383838" r="1.196"/>
  </g>
  <g  id="G12pin">
   <path  d="M87.726,72c0,-1.322,1.072,-2.394,2.394,-2.394c1.322,0,2.394,1.071,2.394,2.394" fill="#BFBFBF"/>
   <path  d="M92.513,72c0,1.322,-1.071,2.394,-2.394,2.394c-1.321,0,-2.394,-1.071,-2.394,-2.394" fill="#E6E6E6"/>
   <circle  cx="90.12" cy="72" fill="#383838" r="1.197"/>
  </g>
  <g  id="H12pin">
   <path  d="M87.726,79.2c0,-1.322,1.072,-2.394,2.394,-2.394c1.322,0,2.394,1.071,2.394,2.394" fill="#BFBFBF"/>
   <path  d="M92.513,79.2c0,1.321,-1.071,2.394,-2.394,2.394c-1.321,0,-2.394,-1.072,-2.394,-2.394l0,0" fill="#E6E6E6"/>
   <circle  cx="90.12" cy="79.2" fill="#383838" r="1.197"/>
  </g>
  <g  id="I12pin">
   <path  d="M87.726,86.4c0,-1.322,1.072,-2.395,2.394,-2.395c1.322,0,2.394,1.072,2.394,2.395" fill="#BFBFBF"/>
   <path  d="M92.513,86.4c0,1.321,-1.071,2.393,-2.394,2.393c-1.321,0,-2.394,-1.071,-2.394,-2.393" fill="#E6E6E6"/>
   <circle  cx="90.12" cy="86.4" fill="#383838" r="1.197"/>
  </g>
  <g  id="J12pin">
   <path  d="M87.726,93.6c0,-1.322,1.072,-2.394,2.394,-2.394c1.322,0,2.394,1.071,2.394,2.394" fill="#BFBFBF"/>
   <path  d="M92.513,93.6c0,1.322,-1.071,2.395,-2.394,2.395c-1.321,0,-2.394,-1.072,-2.394,-2.395l0,0" fill="#E6E6E6"/>
   <circle  cx="90.12" cy="93.6" fill="#383838" r="1.197"/>
  </g>
  <g  id="F13pin">
   <path  d="M94.926,64.8c0,-1.321,1.071,-2.394,2.394,-2.394s2.394,1.072,2.394,2.394" fill="#BFBFBF"/>
   <path  d="M99.713,64.8c0,1.322,-1.071,2.394,-2.394,2.394s-2.394,-1.071,-2.394,-2.394" fill="#E6E6E6"/>
   <circle  cx="97.32" cy="64.8" fill="#383838" r="1.196"/>
  </g>
  <g  id="G13pin">
   <path  d="M94.926,72c0,-1.322,1.071,-2.394,2.394,-2.394s2.394,1.071,2.394,2.394" fill="#BFBFBF"/>
   <path  d="M99.713,72c0,1.322,-1.071,2.394,-2.394,2.394S94.926,73.322,94.926,72" fill="#E6E6E6"/>
   <circle  cx="97.32" cy="72" fill="#383838" r="1.197"/>
  </g>
  <g  id="H13pin">
   <path  d="M94.926,79.2c0,-1.322,1.071,-2.394,2.394,-2.394s2.394,1.071,2.394,2.394" fill="#BFBFBF"/>
   <path  d="M99.713,79.2c0,1.321,-1.071,2.394,-2.394,2.394s-2.394,-1.072,-2.394,-2.394l0,0" fill="#E6E6E6"/>
   <circle  cx="97.32" cy="79.2" fill="#383838" r="1.197"/>
  </g>
  <g  id="I13pin">
   <path  d="M94.926,86.4c0,-1.322,1.071,-2.395,2.394,-2.395s2.394,1.072,2.394,2.395" fill="#BFBFBF"/>
   <path  d="M99.713,86.4c0,1.321,-1.071,2.393,-2.394,2.393s-2.394,-1.071,-2.394,-2.393" fill="#E6E6E6"/>
   <circle  cx="97.32" cy="86.4" fill="#383838" r="1.197"/>
  </g>
  <g  id="J13pin">
   <path  d="M94.926,93.6c0,-1.322,1.071,-2.394,2.394,-2.394s2.394,1.071,2.394,2.394" fill="#BFBFBF"/>
   <path  d="M99.713,93.6c0,1.322,-1.071,2.395,-2.394,2.395s-2.394,-1.072,-2.394,-2.395l0,0" fill="#E6E6E6"/>
   <circle  cx="97.32" cy="93.6" fill="#383838" r="1.197"/>
  </g>
  <g  id="F14pin">
   <path  d="M102.126,64.8c0,-1.321,1.071,-2.394,2.394,-2.394c1.321,0,2.394,1.072,2.394,2.394" fill="#BFBFBF"/>
   <path  d="M106.914,64.8c0,1.322,-1.072,2.394,-2.394,2.394c-1.322,0,-2.394,-1.071,-2.394,-2.394" fill="#E6E6E6"/>
   <circle  cx="104.52" cy="64.8" fill="#383838" r="1.196"/>
  </g>
  <g  id="G14pin">
   <path  d="M102.126,72c0,-1.322,1.071,-2.394,2.394,-2.394c1.321,0,2.394,1.071,2.394,2.394" fill="#BFBFBF"/>
   <path  d="M106.914,72c0,1.322,-1.072,2.394,-2.394,2.394c-1.322,0,-2.394,-1.071,-2.394,-2.394" fill="#E6E6E6"/>
   <circle  cx="104.52" cy="72" fill="#383838" r="1.197"/>
  </g>
  <g  id="H14pin">
   <path  d="M102.126,79.2c0,-1.322,1.071,-2.394,2.394,-2.394c1.321,0,2.394,1.071,2.394,2.394" fill="#BFBFBF"/>
   <path  d="M106.914,79.2c0,1.321,-1.072,2.394,-2.394,2.394c-1.322,0,-2.394,-1.072,-2.394,-2.394l0,0" fill="#E6E6E6"/>
   <circle  cx="104.52" cy="79.2" fill="#383838" r="1.197"/>
  </g>
  <g  id="I14pin">
   <path  d="M102.126,86.4c0,-1.322,1.071,-2.395,2.394,-2.395c1.321,0,2.394,1.072,2.394,2.395" fill="#BFBFBF"/>
   <path  d="M106.914,86.4c0,1.321,-1.072,2.393,-2.394,2.393c-1.322,0,-2.394,-1.071,-2.394,-2.393" fill="#E6E6E6"/>
   <circle  cx="104.52" cy="86.4" fill="#383838" r="1.197"/>
  </g>
  <g  id="J14pin">
   <path  d="M102.126,93.6c0,-1.322,1.071,-2.394,2.394,-2.394c1.321,0,2.394,1.071,2.394,2.394" fill="#BFBFBF"/>
   <path  d="M106.914,93.6c0,1.322,-1.072,2.395,-2.394,2.395c-1.322,0,-2.394,-1.072,-2.394,-2.395l0,0" fill="#E6E6E6"/>
   <circle  cx="104.52" cy="93.6" fill="#383838" r="1.197"/>
  </g>
  <g  id="F15pin">
   <path  d="M109.326,64.8c0.002,-1.321,1.076,-2.392,2.398,-2.39c1.318,0.002,2.387,1.07,2.389,2.39" fill="#BFBFBF"/>
   <path  d="M114.113,64.8c0.002,1.322,-1.067,2.396,-2.389,2.397c-1.322,0.002,-2.396,-1.068,-2.398,-2.391c0,-0.002,0,-0.004,0,-0.007" fill="#E6E6E6"/>
   <circle  cx="111.72" cy="64.8" fill="#383838" r="1.196"/>
  </g>
  <g  id="G15pin">
   <path  d="M109.326,72c0.002,-1.322,1.076,-2.393,2.398,-2.391c1.318,0.002,2.387,1.071,2.389,2.391" fill="#BFBFBF"/>
   <path  d="M114.113,72c0.002,1.322,-1.067,2.395,-2.389,2.396c-1.322,0.002,-2.396,-1.067,-2.398,-2.39c0,-0.002,0,-0.005,0,-0.007" fill="#E6E6E6"/>
   <circle  cx="111.72" cy="72" fill="#383838" r="1.197"/>
  </g>
  <g  id="H15pin">
   <path  d="M109.326,79.2c0.002,-1.322,1.076,-2.392,2.398,-2.39c1.318,0.002,2.387,1.07,2.389,2.39" fill="#BFBFBF"/>
   <path  d="M114.113,79.2c0.002,1.321,-1.067,2.396,-2.389,2.397c-1.322,0.002,-2.396,-1.068,-2.398,-2.391c0,-0.002,0,-0.005,0,-0.007" fill="#E6E6E6"/>
   <circle  cx="111.72" cy="79.2" fill="#383838" r="1.197"/>
  </g>
  <g  id="I15pin">
   <path  d="M109.326,86.4c0.002,-1.322,1.076,-2.393,2.398,-2.391c1.318,0.002,2.387,1.07,2.389,2.391" fill="#BFBFBF"/>
   <path  d="M114.113,86.4c0.002,1.321,-1.067,2.395,-2.389,2.396c-1.322,0.002,-2.396,-1.068,-2.398,-2.39c0,-0.003,0,-0.005,0,-0.007" fill="#E6E6E6"/>
   <circle  cx="111.72" cy="86.4" fill="#383838" r="1.197"/>
  </g>
  <g  id="J15pin">
   <path  d="M109.326,93.6c0.002,-1.322,1.076,-2.392,2.398,-2.39c1.318,0.002,2.387,1.071,2.389,2.39" fill="#BFBFBF"/>
   <path  d="M114.113,93.6c0.002,1.322,-1.067,2.396,-2.389,2.397c-1.322,0.002,-2.396,-1.067,-2.398,-2.39c0,-0.003,0,-0.005,0,-0.008" fill="#E6E6E6"/>
   <circle  cx="111.72" cy="93.6" fill="#383838" r="1.197"/>
  </g>
  <g  id="F16pin">
   <path  d="M116.527,64.8c0.002,-1.321,1.074,-2.392,2.396,-2.39c1.319,0.002,2.389,1.07,2.391,2.39" fill="#BFBFBF"/>
   <path  d="M121.314,64.8c0.002,1.322,-1.068,2.396,-2.391,2.397s-2.395,-1.068,-2.396,-2.391c0,-0.002,0,-0.004,0,-0.007" fill="#E6E6E6"/>
   <circle  cx="118.919" cy="64.8" fill="#383838" r="1.196"/>
  </g>
  <g  id="G16pin">
   <path  d="M116.527,72c0.002,-1.322,1.074,-2.393,2.396,-2.391c1.319,0.002,2.389,1.071,2.391,2.391" fill="#BFBFBF"/>
   <path  d="M121.314,72c0.002,1.322,-1.068,2.395,-2.391,2.396s-2.395,-1.067,-2.396,-2.39c0,-0.002,0,-0.005,0,-0.007" fill="#E6E6E6"/>
   <circle  cx="118.919" cy="72" fill="#383838" r="1.197"/>
  </g>
  <g  id="H16pin">
   <path  d="M116.527,79.2c0.002,-1.322,1.074,-2.392,2.396,-2.39c1.319,0.002,2.389,1.07,2.391,2.39" fill="#BFBFBF"/>
   <path  d="M121.314,79.2c0.002,1.321,-1.068,2.396,-2.391,2.397s-2.395,-1.068,-2.396,-2.391c0,-0.002,0,-0.005,0,-0.007" fill="#E6E6E6"/>
   <circle  cx="118.919" cy="79.2" fill="#383838" r="1.197"/>
  </g>
  <g  id="I16pin">
   <path  d="M116.527,86.4c0.002,-1.322,1.074,-2.393,2.396,-2.391c1.319,0.002,2.389,1.07,2.391,2.391" fill="#BFBFBF"/>
   <path  d="M121.314,86.4c0.002,1.321,-1.068,2.395,-2.391,2.396s-2.395,-1.068,-2.396,-2.39c0,-0.003,0,-0.005,0,-0.007" fill="#E6E6E6"/>
   <circle  cx="118.919" cy="86.4" fill="#383838" r="1.197"/>
  </g>
  <g  id="J16pin">
   <path  d="M116.527,93.6c0.002,-1.322,1.074,-2.392,2.396,-2.39c1.319,0.002,2.389,1.071,2.391,2.39" fill="#BFBFBF"/>
   <path  d="M121.314,93.6c0.002,1.322,-1.068,2.396,-2.391,2.397s-2.395,-1.067,-2.396,-2.39c0,-0.003,0,-0.005,0,-0.008" fill="#E6E6E6"/>
   <circle  cx="118.919" cy="93.6" fill="#383838" r="1.197"/>
  </g>
  <g  id="F17pin">
   <path  d="M123.726,64.8c0.002,-1.321,1.075,-2.392,2.397,-2.39c1.319,0.002,2.388,1.07,2.39,2.39" fill="#BFBFBF"/>
   <path  d="M128.513,64.8c0.002,1.322,-1.068,2.396,-2.39,2.397c-1.322,0.002,-2.396,-1.068,-2.397,-2.391c0,-0.002,0,-0.004,0,-0.007" fill="#E6E6E6"/>
   <circle  cx="126.12" cy="64.8" fill="#383838" r="1.196"/>
  </g>
  <g  id="G17pin">
   <path  d="M123.726,72c0.002,-1.322,1.075,-2.393,2.397,-2.391c1.319,0.002,2.388,1.071,2.39,2.391" fill="#BFBFBF"/>
   <path  d="M128.513,72c0.002,1.322,-1.068,2.395,-2.39,2.396c-1.322,0.002,-2.396,-1.067,-2.397,-2.39c0,-0.002,0,-0.005,0,-0.007" fill="#E6E6E6"/>
   <circle  cx="126.12" cy="72" fill="#383838" r="1.197"/>
  </g>
  <g  id="H17pin">
   <path  d="M123.726,79.2c0.002,-1.322,1.075,-2.392,2.397,-2.39c1.319,0.002,2.388,1.07,2.39,2.39" fill="#BFBFBF"/>
   <path  d="M128.513,79.2c0.002,1.321,-1.068,2.396,-2.39,2.397c-1.322,0.002,-2.396,-1.068,-2.397,-2.391c0,-0.002,0,-0.005,0,-0.007" fill="#E6E6E6"/>
   <circle  cx="126.12" cy="79.2" fill="#383838" r="1.197"/>
  </g>
  <g  id="I17pin">
   <path  d="M123.726,86.4c0.002,-1.322,1.075,-2.393,2.397,-2.391c1.319,0.002,2.388,1.07,2.39,2.391" fill="#BFBFBF"/>
   <path  d="M128.513,86.4c0.002,1.321,-1.068,2.395,-2.39,2.396c-1.322,0.002,-2.396,-1.068,-2.397,-2.39c0,-0.003,0,-0.005,0,-0.007" fill="#E6E6E6"/>
   <circle  cx="126.12" cy="86.4" fill="#383838" r="1.197"/>
  </g>
  <g  id="J17pin">
   <path  d="M123.726,93.6c0.002,-1.322,1.075,-2.392,2.397,-2.39c1.319,0.002,2.388,1.071,2.39,2.39" fill="#BFBFBF"/>
   <path  d="M128.513,93.6c0.002,1.322,-1.068,2.396,-2.39,2.397c-1.322,0.002,-2.396,-1.067,-2.397,-2.39c0,-0.003,0,-0.005,0,-0.008" fill="#E6E6E6"/>
   <circle  cx="126.12" cy="93.6" fill="#383838" r="1.197"/>
  </g>
  <g  id="F18pin">
   <path  d="M130.926,64.8c0.002,-1.321,1.075,-2.392,2.397,-2.39c1.318,0.002,2.388,1.07,2.39,2.39" fill="#BFBFBF"/>
   <path  d="M135.713,64.8c0.002,1.322,-1.067,2.396,-2.39,2.397s-2.396,-1.068,-2.397,-2.391c0,-0.002,0,-0.004,0,-0.007" fill="#E6E6E6"/>
   <circle  cx="133.32" cy="64.8" fill="#383838" r="1.196"/>
  </g>
  <g  id="G18pin">
   <path  d="M130.926,72c0.002,-1.322,1.075,-2.393,2.397,-2.391c1.318,0.002,2.388,1.071,2.39,2.391" fill="#BFBFBF"/>
   <path  d="M135.713,72c0.002,1.322,-1.067,2.395,-2.39,2.396s-2.396,-1.067,-2.397,-2.39c0,-0.002,0,-0.005,0,-0.007" fill="#E6E6E6"/>
   <circle  cx="133.32" cy="72" fill="#383838" r="1.197"/>
  </g>
  <g  id="H18pin">
   <path  d="M130.926,79.2c0.002,-1.322,1.075,-2.392,2.397,-2.39c1.318,0.002,2.388,1.07,2.39,2.39" fill="#BFBFBF"/>
   <path  d="M135.713,79.2c0.002,1.321,-1.067,2.396,-2.39,2.397s-2.396,-1.068,-2.397,-2.391c0,-0.002,0,-0.005,0,-0.007" fill="#E6E6E6"/>
   <circle  cx="133.32" cy="79.2" fill="#383838" r="1.197"/>
  </g>
  <g  id="I18pin">
   <path  d="M130.926,86.4c0.002,-1.322,1.075,-2.393,2.397,-2.391c1.318,0.002,2.388,1.07,2.39,2.391" fill="#BFBFBF"/>
   <path  d="M135.713,86.4c0.002,1.321,-1.067,2.395,-2.39,2.396s-2.396,-1.068,-2.397,-2.39c0,-0.003,0,-0.005,0,-0.007" fill="#E6E6E6"/>
   <circle  cx="133.32" cy="86.4" fill="#383838" r="1.197"/>
  </g>
  <g  id="J18pin">
   <path  d="M130.926,93.6c0.002,-1.322,1.075,-2.392,2.397,-2.39c1.318,0.002,2.388,1.071,2.39,2.39" fill="#BFBFBF"/>
   <path  d="M135.713,93.6c0.002,1.322,-1.067,2.396,-2.39,2.397s-2.396,-1.067,-2.397,-2.39c0,-0.003,0,-0.005,0,-0.008" fill="#E6E6E6"/>
   <circle  cx="133.32" cy="93.6" fill="#383838" r="1.197"/>
  </g>
  <g  id="F19pin">
   <path  d="M138.126,64.8c0.002,-1.321,1.075,-2.392,2.396,-2.39c1.319,0.002,2.389,1.07,2.391,2.39" fill="#BFBFBF"/>
   <path  d="M142.914,64.8c0.002,1.322,-1.068,2.396,-2.391,2.397c-1.321,0.002,-2.395,-1.068,-2.396,-2.391c0,-0.002,0,-0.004,0,-0.007" fill="#E6E6E6"/>
   <circle  cx="140.52" cy="64.8" fill="#383838" r="1.196"/>
  </g>
  <g  id="G19pin">
   <path  d="M138.126,72c0.002,-1.322,1.075,-2.393,2.396,-2.391c1.319,0.002,2.389,1.071,2.391,2.391" fill="#BFBFBF"/>
   <path  d="M142.914,72c0.002,1.322,-1.068,2.395,-2.391,2.396c-1.321,0.002,-2.395,-1.067,-2.396,-2.39c0,-0.002,0,-0.005,0,-0.007" fill="#E6E6E6"/>
   <circle  cx="140.52" cy="72" fill="#383838" r="1.197"/>
  </g>
  <g  id="H19pin">
   <path  d="M138.126,79.2c0.002,-1.322,1.075,-2.392,2.396,-2.39c1.319,0.002,2.389,1.07,2.391,2.39" fill="#BFBFBF"/>
   <path  d="M142.914,79.2c0.002,1.321,-1.068,2.396,-2.391,2.397c-1.321,0.002,-2.395,-1.068,-2.396,-2.391c0,-0.002,0,-0.005,0,-0.007" fill="#E6E6E6"/>
   <circle  cx="140.52" cy="79.2" fill="#383838" r="1.197"/>
  </g>
  <g  id="I19pin">
   <path  d="M138.126,86.4c0.002,-1.322,1.075,-2.393,2.396,-2.391c1.319,0.002,2.389,1.07,2.391,2.391" fill="#BFBFBF"/>
   <path  d="M142.914,86.4c0.002,1.321,-1.068,2.395,-2.391,2.396c-1.321,0.002,-2.395,-1.068,-2.396,-2.39c0,-0.003,0,-0.005,0,-0.007" fill="#E6E6E6"/>
   <circle  cx="140.52" cy="86.4" fill="#383838" r="1.197"/>
  </g>
  <g  id="J19pin">
   <path  d="M138.126,93.6c0.002,-1.322,1.075,-2.392,2.396,-2.39c1.319,0.002,2.389,1.071,2.391,2.39" fill="#BFBFBF"/>
   <path  d="M142.914,93.6c0.002,1.322,-1.068,2.396,-2.391,2.397c-1.321,0.002,-2.395,-1.067,-2.396,-2.39c0,-0.003,0,-0.005,0,-0.008" fill="#E6E6E6"/>
   <circle  cx="140.52" cy="93.6" fill="#383838" r="1.197"/>
  </g>
  <g  id="F20pin">
   <path  d="M145.326,64.8c0.002,-1.321,1.076,-2.392,2.397,-2.39c1.319,0.002,2.388,1.07,2.39,2.39" fill="#BFBFBF"/>
   <path  d="M150.113,64.8c0.002,1.322,-1.067,2.396,-2.39,2.397c-1.321,0.002,-2.396,-1.068,-2.397,-2.391c0,-0.002,0,-0.004,0,-0.007" fill="#E6E6E6"/>
   <circle  cx="147.72" cy="64.8" fill="#383838" r="1.196"/>
  </g>
  <g  id="G20pin">
   <path  d="M145.326,72c0.002,-1.322,1.076,-2.393,2.397,-2.391c1.319,0.002,2.388,1.071,2.39,2.391" fill="#BFBFBF"/>
   <path  d="M150.113,72c0.002,1.322,-1.067,2.395,-2.39,2.396c-1.321,0.002,-2.396,-1.067,-2.397,-2.39c0,-0.002,0,-0.005,0,-0.007" fill="#E6E6E6"/>
   <circle  cx="147.72" cy="72" fill="#383838" r="1.197"/>
  </g>
  <g  id="H20pin">
   <path  d="M145.326,79.2c0.002,-1.322,1.076,-2.392,2.397,-2.39c1.319,0.002,2.388,1.07,2.39,2.39" fill="#BFBFBF"/>
   <path  d="M150.113,79.2c0.002,1.321,-1.067,2.396,-2.39,2.397c-1.321,0.002,-2.396,-1.068,-2.397,-2.391c0,-0.002,0,-0.005,0,-0.007" fill="#E6E6E6"/>
   <circle  cx="147.72" cy="79.2" fill="#383838" r="1.197"/>
  </g>
  <g  id="I20pin">
   <path  d="M145.326,86.4c0.002,-1.322,1.076,-2.393,2.397,-2.391c1.319,0.002,2.388,1.07,2.39,2.391" fill="#BFBFBF"/>
   <path  d="M150.113,86.4c0.002,1.321,-1.067,2.395,-2.39,2.396c-1.321,0.002,-2.396,-1.068,-2.397,-2.39c0,-0.003,0,-0.005,0,-0.007" fill="#E6E6E6"/>
   <circle  cx="147.72" cy="86.4" fill="#383838" r="1.197"/>
  </g>
  <g  id="J20pin">
   <path  d="M145.326,93.6c0.002,-1.322,1.076,-2.392,2.397,-2.39c1.319,0.002,2.388,1.071,2.39,2.39" fill="#BFBFBF"/>
   <path  d="M150.113,93.6c0.002,1.322,-1.067,2.396,-2.39,2.397c-1.321,0.002,-2.396,-1.067,-2.397,-2.39c0,-0.003,0,-0.005,0,-0.008" fill="#E6E6E6"/>
   <circle  cx="147.72" cy="93.6" fill="#383838" r="1.197"/>
  </g>
 </g>
</g>
</g></g><g partID='71190'><g transform='translate(25.4591,0)' ><g xmlns="http://www.w3.org/2000/svg" id="breadboard">
 <g xmlns="http://www.w3.org/2000/svg" id="Capa_x0020_1">
  <metadata xmlns="http://www.w3.org/2000/svg" id="CorelCorpID_0Corel-Layer"/>
  <g xmlns="http://www.w3.org/2000/svg" id="_144824656">
   <g xmlns="http://www.w3.org/2000/svg" id="g3000">
    <rect xmlns="http://www.w3.org/2000/svg" id="_144825976" height="47.1013" x="2.50951" y="1.73877" fill="#e6e6e6" width="31.0334" rx="8.10312" ry="8.10312"/>
    <ellipse xmlns="http://www.w3.org/2000/svg" stroke="#1e1e1e" id="_144821416" stroke-width="0.216" cx="18.2372" cy="8.08526" fill="#1e1e1e" rx="2.93746" ry="3.03591"/>
   </g>
   <g xmlns="http://www.w3.org/2000/svg" id="g3004">
    <rect xmlns="http://www.w3.org/2000/svg" id="_144822136" height="31.1253" x="2.81027" y="18.4986" fill="#c3c3c3" width="31.7772"/>
    <rect xmlns="http://www.w3.org/2000/svg" id="_144818704" height="10.9934" x="2.80233" y="12.3885" fill="#c3c3c3" width="2.63452" rx="0.19389" ry="0.19389"/>
    <rect xmlns="http://www.w3.org/2000/svg" id="_144826744" height="10.9934" x="31.9992" y="12.3885" fill="#c3c3c3" width="2.60249" rx="0.19389" ry="0.19389"/>
    <rect xmlns="http://www.w3.org/2000/svg" id="_144823288" height="10.3522" x="2.80233" y="43.7224" fill="#c3c3c3" width="2.63452" rx="0.646299" ry="0.646299"/>
    <rect xmlns="http://www.w3.org/2000/svg" id="_144827656" height="5.73823" x="29.982" y="48.3364" fill="#c3c3c3" width="4.60517" rx="0.646299" ry="0.646299"/>
    <rect xmlns="http://www.w3.org/2000/svg" id="_144829120" height="36.5658" x="4.85861" y="15.0415" fill="#c3c3c3" width="27.6879"/>
    <rect xmlns="http://www.w3.org/2000/svg" id="_144820960" height="41.7475" x="3.88715" y="12.327" fill="#c3c3c3" width="29.2963"/>
   </g>
   <g xmlns="http://www.w3.org/2000/svg" id="g3013">
    <line xmlns="http://www.w3.org/2000/svg" class="fil3 str1" stroke="#8c8c8c" id="_144824728" stroke-width="2.16" y1="53.6723" y2="62.8965" x1="21.5059" x2="21.5133" fill="none"/>
    <line xmlns="http://www.w3.org/2000/svg" class="fil3 str1" stroke="#8c8c8c" id="_144822016" stroke-width="2.16" y1="53.6661" y2="62.8903" x1="28.7059" x2="28.7133" fill="none"/>
    <line xmlns="http://www.w3.org/2000/svg" class="fil3 str1" stroke="#8c8c8c" id="_144829456" stroke-width="2.16" y1="53.6661" y2="62.8903" x1="7.10589" x2="7.11326" fill="none"/>
    <line xmlns="http://www.w3.org/2000/svg" class="fil3 str1" stroke="#8c8c8c" id="_144819832" stroke-width="2.16" y1="53.6661" y2="62.8903" x1="14.3059" x2="14.3133" fill="none"/>
   </g>
   <g xmlns="http://www.w3.org/2000/svg" id="g3019">
    <g xmlns="http://www.w3.org/2000/svg" id="g3021">
     <rect xmlns="http://www.w3.org/2000/svg" id="_144826048" height="2.664" x="26.4793" y="19.4824" fill="#cbcbcb" width="7.17931"/>
     <rect xmlns="http://www.w3.org/2000/svg" id="_144823816" height="2.664" x="26.4793" y="24.8682" fill="#cbcbcb" width="7.17931"/>
     <rect xmlns="http://www.w3.org/2000/svg" id="_144826288" height="2.664" x="26.483" y="30.2539" fill="#cbcbcb" width="7.17562"/>
     <rect xmlns="http://www.w3.org/2000/svg" id="_144823936" height="2.664" x="26.4796" y="35.6397" fill="#cbcbcb" width="7.17902"/>
     <rect xmlns="http://www.w3.org/2000/svg" id="_144820816" height="2.664" x="26.4793" y="41.0255" fill="#cbcbcb" width="7.17931"/>
    </g>
    <g xmlns="http://www.w3.org/2000/svg" id="g3028">
     <rect xmlns="http://www.w3.org/2000/svg" id="_144817768" height="2.664" x="2.45254" y="19.4824" fill="#cbcbcb" width="1.99559"/>
     <rect xmlns="http://www.w3.org/2000/svg" id="_144819880" height="2.664" x="2.45254" y="24.8682" fill="#cbcbcb" width="1.99559"/>
     <rect xmlns="http://www.w3.org/2000/svg" id="_144822112" height="2.664" x="2.45254" y="30.2539" fill="#cbcbcb" width="1.99559"/>
     <rect xmlns="http://www.w3.org/2000/svg" id="_144820576" height="2.664" x="2.45254" y="35.6397" fill="#cbcbcb" width="1.99559"/>
     <rect xmlns="http://www.w3.org/2000/svg" id="_144821872" height="2.664" x="2.45254" y="41.0255" fill="#cbcbcb" width="1.99559"/>
    </g>
   </g>
   <g xmlns="http://www.w3.org/2000/svg" id="g3035">
    <g xmlns="http://www.w3.org/2000/svg" id="g3037">
     <rect xmlns="http://www.w3.org/2000/svg" id="_144818008" height="2.66406" x="11.7439" y="19.4818" fill="#1e1e1e" width="2.664"/>
     <rect xmlns="http://www.w3.org/2000/svg" id="_144821656" height="2.66406" x="16.8463" y="19.4818" fill="#1e1e1e" width="2.664"/>
     <rect xmlns="http://www.w3.org/2000/svg" id="_144829816" height="2.66406" x="21.6652" y="19.4818" fill="#1e1e1e" width="2.664"/>
     <path xmlns="http://www.w3.org/2000/svg" d="m26.4841,19.4817,4.48668,0c0.587055,0,1.06668,0.237827,1.06668,0.528945l0,1.60611c0,0.291118,-0.479622,0.529228,-1.06668,0.529228l-4.48668,0,0,-2.66428z" id="_144831328" fill="#1e1e1e"/>
     <rect xmlns="http://www.w3.org/2000/svg" id="_144827224" height="2.66406" x="4.44898" y="19.4818" fill="#1e1e1e" width="4.8566"/>
    </g>
    <g xmlns="http://www.w3.org/2000/svg" id="g3044">
     <rect xmlns="http://www.w3.org/2000/svg" id="_144824824" height="2.66406" x="11.7439" y="24.8676" fill="#1e1e1e" width="2.664"/>
     <rect xmlns="http://www.w3.org/2000/svg" id="_144817504" height="2.66406" x="16.8463" y="24.8676" fill="#1e1e1e" width="2.664"/>
     <rect xmlns="http://www.w3.org/2000/svg" id="_144825928" height="2.66406" x="21.6652" y="24.8676" fill="#1e1e1e" width="2.664"/>
     <path xmlns="http://www.w3.org/2000/svg" d="m26.4841,24.8675,4.48668,0c0.587055,0,1.06668,0.237827,1.06668,0.528945l0,1.60611c0,0.291118,-0.479622,0.529228,-1.06668,0.529228l-4.48668,0,0,-2.66428z" id="_144829048" fill="#1e1e1e"/>
     <rect xmlns="http://www.w3.org/2000/svg" id="_144825112" height="2.66406" x="4.44898" y="24.8676" fill="#1e1e1e" width="4.8566"/>
    </g>
    <g xmlns="http://www.w3.org/2000/svg" id="g3051">
     <rect xmlns="http://www.w3.org/2000/svg" id="_144821512" height="2.66406" x="11.7439" y="30.2533" fill="#1e1e1e" width="2.664"/>
     <rect xmlns="http://www.w3.org/2000/svg" id="_144822784" height="2.66406" x="16.8463" y="30.2533" fill="#1e1e1e" width="2.664"/>
     <rect xmlns="http://www.w3.org/2000/svg" id="_144822664" height="2.66406" x="21.6652" y="30.2533" fill="#1e1e1e" width="2.664"/>
     <path xmlns="http://www.w3.org/2000/svg" d="m26.4841,30.2533,4.48668,0c0.587055,0,1.06668,0.237827,1.06668,0.528945l0,1.60611c0,0.291118,-0.479622,0.529228,-1.06668,0.529228l-4.48668,0,0,-2.66428z" id="_144820672" fill="#1e1e1e"/>
     <rect xmlns="http://www.w3.org/2000/svg" id="_144824752" height="2.66406" x="4.44898" y="30.2533" fill="#1e1e1e" width="4.8566"/>
    </g>
    <g xmlns="http://www.w3.org/2000/svg" id="g3058">
     <rect xmlns="http://www.w3.org/2000/svg" id="_144828472" height="2.66406" x="11.7439" y="35.6391" fill="#1e1e1e" width="2.664"/>
     <rect xmlns="http://www.w3.org/2000/svg" id="_144821968" height="2.66406" x="16.8463" y="35.6391" fill="#1e1e1e" width="2.664"/>
     <rect xmlns="http://www.w3.org/2000/svg" id="_144828256" height="2.66406" x="21.6652" y="35.6391" fill="#1e1e1e" width="2.664"/>
     <path xmlns="http://www.w3.org/2000/svg" d="m26.4841,35.6391,4.48668,0c0.587055,0,1.06668,0.237827,1.06668,0.528945l0,1.60611c0,0.291118,-0.479622,0.529228,-1.06668,0.529228l-4.48668,0,0,-2.66428z" id="_144828376" fill="#1e1e1e"/>
     <rect xmlns="http://www.w3.org/2000/svg" id="_144823504" height="2.66406" x="4.44898" y="35.6391" fill="#1e1e1e" width="4.8566"/>
    </g>
    <g xmlns="http://www.w3.org/2000/svg" id="g3065">
     <rect xmlns="http://www.w3.org/2000/svg" id="_144825784" height="2.66406" x="11.7439" y="41.025" fill="#1e1e1e" width="2.664"/>
     <rect xmlns="http://www.w3.org/2000/svg" id="_144826936" height="2.66406" x="16.8463" y="41.025" fill="#1e1e1e" width="2.664"/>
     <rect xmlns="http://www.w3.org/2000/svg" id="_144826912" height="2.66406" x="21.6652" y="41.025" fill="#1e1e1e" width="2.664"/>
     <path xmlns="http://www.w3.org/2000/svg" d="m26.4841,41.025,4.48668,0c0.587055,0,1.06668,0.237827,1.06668,0.528945l0,1.60611c0,0.291118,-0.479622,0.529228,-1.06668,0.529228l-4.48668,0,0,-2.66428z" id="_144827152" fill="#1e1e1e"/>
     <rect xmlns="http://www.w3.org/2000/svg" id="_144827080" height="2.66406" x="4.44898" y="41.025" fill="#1e1e1e" width="4.8566"/>
    </g>
   </g>
   <g xmlns="http://www.w3.org/2000/svg" id="g3072">
    <g xmlns="http://www.w3.org/2000/svg" id="g3074">
     <g xmlns="http://www.w3.org/2000/svg" id="g3076">
      <g xmlns="http://www.w3.org/2000/svg" id="g3078">
       <rect xmlns="http://www.w3.org/2000/svg" id="_144817024" height="39.6357" x="9.30671" y="12.0137" fill="#f0f0f0" width="2.43751"/>
       <rect xmlns="http://www.w3.org/2000/svg" id="_144817168" height="2.12326" x="9.31876" y="11.215" fill="#f0f0f0" width="2.42306" rx="0.166677" ry="0.166677"/>
      </g>
      <g xmlns="http://www.w3.org/2000/svg" id="g3082">
       <rect xmlns="http://www.w3.org/2000/svg" id="_144817240" height="39.6357" x="14.4091" y="12.0137" fill="#f0f0f0" width="2.43751"/>
       <rect xmlns="http://www.w3.org/2000/svg" id="_144816328" height="2.12326" x="14.4211" y="11.215" fill="#f0f0f0" width="2.42306" rx="0.166677" ry="0.166677"/>
      </g>
      <g xmlns="http://www.w3.org/2000/svg" id="g3086">
       <rect xmlns="http://www.w3.org/2000/svg" id="_144815368" height="39.6357" x="19.5114" y="12.0137" fill="#f0f0f0" width="2.43751"/>
       <rect xmlns="http://www.w3.org/2000/svg" id="_144818248" height="2.12326" x="19.5235" y="11.215" fill="#f0f0f0" width="2.42306" rx="0.166677" ry="0.166677"/>
      </g>
      <g xmlns="http://www.w3.org/2000/svg" id="g3090">
       <rect xmlns="http://www.w3.org/2000/svg" id="_144817960" height="39.6357" x="24.3303" y="12.0137" fill="#f0f0f0" width="2.43751"/>
       <rect xmlns="http://www.w3.org/2000/svg" id="_144818128" height="2.12326" x="24.3424" y="11.215" fill="#f0f0f0" width="2.42306" rx="0.166677" ry="0.166677"/>
      </g>
     </g>
     <g xmlns="http://www.w3.org/2000/svg" id="g3094">
      <g xmlns="http://www.w3.org/2000/svg" id="g3096">
       <rect xmlns="http://www.w3.org/2000/svg" id="_144817864" height="3.55861" x="2.81424" y="15.9148" fill="#f0f0f0" width="30.714"/>
       <rect xmlns="http://www.w3.org/2000/svg" id="_144817720" height="3.55833" x="1.88787" y="15.9231" fill="#f0f0f0" width="3.41603" rx="0.256252" ry="0.256252"/>
       <rect xmlns="http://www.w3.org/2000/svg" id="_144817408" height="3.55833" x="30.5178" y="15.9231" fill="#f0f0f0" width="3.5606" rx="0.256252" ry="0.256252"/>
      </g>
      <g xmlns="http://www.w3.org/2000/svg" id="g3101">
       <rect xmlns="http://www.w3.org/2000/svg" id="_144817744" height="2.66684" x="2.81424" y="22.1899" fill="#f0f0f0" width="30.714"/>
       <rect xmlns="http://www.w3.org/2000/svg" id="_144828448" height="2.66663" x="1.88787" y="22.196" fill="#f0f0f0" width="3.41603" rx="0.256252" ry="0.256252"/>
       <rect xmlns="http://www.w3.org/2000/svg" id="_144815320" height="2.66663" x="30.5178" y="22.196" fill="#f0f0f0" width="3.5606" rx="0.256252" ry="0.256252"/>
      </g>
      <g xmlns="http://www.w3.org/2000/svg" id="g3106">
       <rect xmlns="http://www.w3.org/2000/svg" id="_144826264" height="2.707" x="2.81424" y="27.5355" fill="#f0f0f0" width="30.714"/>
       <rect xmlns="http://www.w3.org/2000/svg" id="_144825736" height="2.70679" x="1.88787" y="27.5417" fill="#f0f0f0" width="3.41603" rx="0.256252" ry="0.256252"/>
       <rect xmlns="http://www.w3.org/2000/svg" id="_144821320" height="2.70679" x="30.5178" y="27.5417" fill="#f0f0f0" width="3.5606" rx="0.256252" ry="0.256252"/>
      </g>
      <g xmlns="http://www.w3.org/2000/svg" id="g3111">
       <rect xmlns="http://www.w3.org/2000/svg" id="_144828688" height="2.707" x="2.81424" y="32.9213" fill="#f0f0f0" width="30.714"/>
       <rect xmlns="http://www.w3.org/2000/svg" id="_144819808" height="2.70679" x="1.88787" y="32.9275" fill="#f0f0f0" width="3.41603" rx="0.256252" ry="0.256252"/>
       <rect xmlns="http://www.w3.org/2000/svg" id="_144820288" height="2.70679" x="30.5178" y="32.9275" fill="#f0f0f0" width="3.5606" rx="0.256252" ry="0.256252"/>
      </g>
      <g xmlns="http://www.w3.org/2000/svg" id="g3116">
       <rect xmlns="http://www.w3.org/2000/svg" id="_144820888" height="2.707" x="2.81424" y="38.3071" fill="#f0f0f0" width="30.714"/>
       <rect xmlns="http://www.w3.org/2000/svg" id="_144819568" height="2.70679" x="1.88787" y="38.3134" fill="#f0f0f0" width="3.41603" rx="0.256252" ry="0.256252"/>
       <rect xmlns="http://www.w3.org/2000/svg" id="_144818536" height="2.70679" x="30.5178" y="38.3134" fill="#f0f0f0" width="3.5606" rx="0.256252" ry="0.256252"/>
      </g>
     </g>
    </g>
    <g xmlns="http://www.w3.org/2000/svg" id="g3121">
     <g xmlns="http://www.w3.org/2000/svg" id="g3123">
      <rect xmlns="http://www.w3.org/2000/svg" id="_144827800" height="7.32104" x="2.24334" y="45.1397" fill="#f0f0f0" width="31.7772"/>
      <rect xmlns="http://www.w3.org/2000/svg" id="_144826000" height="2.58576" x="2.2354" y="43.7026" fill="#f0f0f0" width="2.63452" rx="0.19389" ry="0.19389"/>
      <rect xmlns="http://www.w3.org/2000/svg" id="_144827488" height="2.58576" x="31.4323" y="43.7026" fill="#f0f0f0" width="2.60249" rx="0.19389" ry="0.19389"/>
      <rect xmlns="http://www.w3.org/2000/svg" id="_144825808" height="2.43496" x="2.2354" y="51.0727" fill="#f0f0f0" width="2.63452" rx="0.646299" ry="0.646299"/>
      <rect xmlns="http://www.w3.org/2000/svg" id="_144825208" height="2.43496" x="31.4323" y="51.0727" fill="#f0f0f0" width="2.58803" rx="0.646299" ry="0.646299"/>
      <rect xmlns="http://www.w3.org/2000/svg" id="_144821752" height="8.60066" x="4.29168" y="44.3265" fill="#f0f0f0" width="27.6879"/>
      <rect xmlns="http://www.w3.org/2000/svg" id="_144821560" height="9.8195" x="3.32022" y="43.6881" fill="#f0f0f0" width="29.2963"/>
     </g>
     <g xmlns="http://www.w3.org/2000/svg" id="g3132">
      <rect xmlns="http://www.w3.org/2000/svg" id="_144822040" height="6.33317" x="1.90233" y="11.2085" fill="#f0f0f0" width="9.03146" rx="1.26652" ry="1.26652"/>
      <rect xmlns="http://www.w3.org/2000/svg" id="_144822280" height="6.33317" x="25.1334" y="11.2085" fill="#f0f0f0" width="8.93055" rx="1.26652" ry="1.26652"/>
     </g>
    </g>
   </g>
   <g xmlns="http://www.w3.org/2000/svg" id="g3136">
    <g xmlns="http://www.w3.org/2000/svg" id="g3138">
     <g xmlns="http://www.w3.org/2000/svg" id="g3140">
      <rect xmlns="http://www.w3.org/2000/svg" id="_144827680" height="1.96186" x="11.7454" y="13.9538" fill="#323232" width="2.65578"/>
      <rect xmlns="http://www.w3.org/2000/svg" id="_144824176" height="1.96186" x="16.8477" y="13.9538" fill="#323232" width="2.65578"/>
      <rect xmlns="http://www.w3.org/2000/svg" id="_144822616" height="1.96186" x="21.9563" y="13.9538" fill="#323232" width="2.25383"/>
     </g>
     <g xmlns="http://www.w3.org/2000/svg" id="g3145">
      <path xmlns="http://www.w3.org/2000/svg" stroke="#78786e" d="m11.7442,14.8178c2.66343,0,2.66343,0,2.66343,0" id="_144828880" stroke-width="0.708661" fill="none"/>
      <path xmlns="http://www.w3.org/2000/svg" stroke="#78786e" d="M16.8471,14.6945C17.6814,14.6894,18.1395,15.0965,18.1925,15.9092" id="_144823480" stroke-width="0.216" fill="none"/>
     </g>
    </g>
    <g xmlns="http://www.w3.org/2000/svg" id="g3149">
     <rect xmlns="http://www.w3.org/2000/svg" id="_144817384" height="1.96186" x="11.7454" y="12.0132" fill="url(#linearGradient3164)" width="2.65578"/>
     <rect xmlns="http://www.w3.org/2000/svg" id="_144825040" height="1.96186" x="16.8477" y="12.0132" fill="url(#linearGradient3166)" width="2.65578"/>
     <rect xmlns="http://www.w3.org/2000/svg" id="_144817648" height="1.96186" x="21.9563" y="12.0132" fill="url(#linearGradient3168)" width="2.25383"/>
    </g>
   </g>
  </g>
 </g>
 <rect xmlns="http://www.w3.org/2000/svg" id="connector1" height="4" x="5.06049" y="58.7631" fill="none" width="4"/>
 <rect xmlns="http://www.w3.org/2000/svg" id="connector2" height="4" x="12.4017" y="58.7631" fill="none" width="4"/>
 <rect xmlns="http://www.w3.org/2000/svg" id="connector3" height="4" x="19.3664" y="58.9514" fill="none" width="4"/>
 <rect xmlns="http://www.w3.org/2000/svg" id="connector4" height="4" x="26.7076" y="58.7631" fill="none" width="4"/>
</g>
</g></g><path stroke='#8c8c8c' stroke-width='2.0952' stroke-linecap='round' stroke-linejoin='round' fill='none' d='M40.7669,82.367L39.7193,82.367' />
<path stroke='#8c8c8c' stroke-width='2.0952' stroke-linecap='round' stroke-linejoin='round' fill='none' d='M67.4768,82.367L68.5244,82.367' />
<g partID='75560'><g transform='translate(38.6717,78.7346)' ><g xmlns="http://www.w3.org/2000/svg" id="breadboard">
 <rect xmlns="http://www.w3.org/2000/svg" id="connector0pin" x="0.36" height="0.72" y="2.5848" fill="none" width="0.72"/>
 <rect xmlns="http://www.w3.org/2000/svg" id="connector1pin" x="29.8202" height="0.72" y="2.5848" fill="none" width="0.72"/>
 <line xmlns="http://www.w3.org/2000/svg" stroke="#8C8C8C" id="connector0leg" stroke-width="2.0952" stroke-linecap="round" y1="3.6324" y2="3.6324" x1="1.0476" x2="2.0952" fill="none"/>
 <line xmlns="http://www.w3.org/2000/svg" stroke="#8C8C8C" id="connector1leg" stroke-width="2.0952" stroke-linecap="round" y1="3.6324" y2="3.6324" x1="29.8526" x2="28.805" fill="none"/>
 <path xmlns="http://www.w3.org/2000/svg" stroke="#8C8C8C" d="M1.0476,3.6324l28.3666,0" stroke-width="2.0952" fill="none"/>
 <path xmlns="http://www.w3.org/2000/svg" d="M10.2478,0.49536c-0.36,-0.1656,-0.9792,-0.2952,-1.3752,-0.2952l-1.9872,0c-0.396,0,-0.72,0.324,-0.72,0.72l0,5.35608c0,0.39672,0.324,0.72,0.72,0.72l1.9872,0c0.396,0,1.0152,-0.13608,1.3752,-0.2952l0.072,-0.03528c0.36,-0.1656,0.9792,-0.2952,1.3752,-0.2952l7.1856,0c0.39672,0,1.01448,0.13608,1.37448,0.2952l0.07272,0.03528c0.36,0.1656,0.97776,0.2952,1.3752,0.2952l1.9872,0c0.39744,0,0.72,-0.32328,0.72,-0.72L24.4102,0.92016c0,-0.396,-0.32256,-0.72,-0.72,-0.72l-1.9872,0c-0.39744,0,-1.0152,0.1368,-1.3752,0.2952l-0.07272,0.036c-0.36,0.1656,-0.97776,0.2952,-1.37448,0.2952l-7.1856,0c-0.396,0,-1.0152,-0.1368,-1.3752,-0.2952L10.2478,0.49536z" id="body" fill="#D9B477"/>
 <rect xmlns="http://www.w3.org/2000/svg" id="gold_band" x="22.019" height="6.79536" y="0.19368" fill="#ad9f4e" width="0.70272"/>
 <rect xmlns="http://www.w3.org/2000/svg" id="band_rd_multiplier" x="16.1726" height="5.5368" y="0.82656" fill="#ff4d00" width="1.8504"/>
 <rect xmlns="http://www.w3.org/2000/svg" id="band_2_nd" x="12.4726" height="5.5368" y="0.82656" fill="#000000" width="1.8504"/>
 <path xmlns="http://www.w3.org/2000/svg" d="M10.6286,0.63936c-0.1152,-0.036,-0.2232,-0.072,-0.3096,-0.1152l-0.072,-0.036c-0.36,-0.16488,-0.9792,-0.2952,-1.3752,-0.2952l-0.0864,0l0,6.79608l0.0864,0c0.396,0,1.0152,-0.13608,1.3752,-0.2952l0.072,-0.03528c0.0864,-0.04464,0.1944,-0.07992,0.3096,-0.1152L10.6286,0.63936z" id="band_1_st" fill="#8a3d06"/>
 <path xmlns="http://www.w3.org/2000/svg" d="M23.711,4.0896L23.711,4.0896c0,0.37944,-0.13032,0.69912,-0.2952,0.69912l-1.9224,0c-0.38016,0,-0.97776,-0.05616,-1.33272,-0.1224L20.088,4.65048c-0.34488,-0.0648,-0.94896,-0.1224,-1.33344,-0.1224L11.808,4.52808c-0.3816,0,-0.9792,0.0576,-1.332,0.1224l-0.072,0.01512c-0.3456,0.06552,-0.9432,0.1224,-1.332,0.1224l-0.3168,0l-1.0008,0l-0.3096,0c-0.3816,0,-0.6984,0.29376,-0.6984,0.64512l0,0.24696L6.7464,5.8392l0,0.1728c0,0.36,0.3168,0.64512,0.6984,0.64512l1.62,0c0.3816,0,0.9792,-0.1224,1.332,-0.26712l0.072,-0.02808c0.3456,-0.14112,0.9504,-0.26496,1.332,-0.26496l6.94656,0c0.37944,0,0.97704,0.12384,1.33416,0.26568l0.07416,0.02808c0.34488,0.14472,0.94464,0.26712,1.33344,0.26712l2.2248,0c0.38088,0,0.69912,-0.2952,0.69912,-0.64512L24.413,5.472L24.413,4.49928L24.413,2.65536C24.1358,2.76336,23.711,3.06576,23.711,4.0896z" id="Shadow" opacity="0.3"/>
 <rect xmlns="http://www.w3.org/2000/svg" id="ShadowExtra" opacity="0.4" x="22.019" height="3.15288" y="3.48336" width="0.70272"/>
 <path xmlns="http://www.w3.org/2000/svg" d="M19.751,1.08576c0.22968,0,0.49104,-0.1008,0.6624,-0.1728c0.2016,-0.0792,0.57672,-0.144,0.96624,-0.144l1.46088,0c0.22464,0,0.22464,0.2448,0.22464,0.3744c0,0.1296,-0.01512,0.3816,-0.22464,0.3816l-3.06,0c-0.10728,0,-0.2304,-0.1152,-0.2304,-0.22392C19.5566,1.21536,19.6286,1.08576,19.751,1.08576z" id="ReflexRight" opacity="0.25" fill="#FFFFFF"/>
 <circle xmlns="http://www.w3.org/2000/svg" id="ReflexLeft" opacity="0.35" cx="6.99984" cy="1.13616" fill="#FFFFFF" r="0.432"/>
 <rect xmlns="http://www.w3.org/2000/svg" id="Reflex_gold" opacity="0.5" x="22.019" height="1.62" y="0.42336" fill="#FFFF33" width="0.70272"/>
 <rect xmlns="http://www.w3.org/2000/svg" id="Reflex_extra" opacity="0.5" x="22.019" height="0.7488" y="0.78336" fill="#FFFFFF" width="0.70272"/>
</g>
</g></g><g partID='75740'><line stroke-linecap='round' stroke='#1b5bb3' x1='104.518' y1='183.167' x2='18.1205' y2='118.364' stroke-width='3.2' /><line stroke-linecap='round' stroke='#418dd9' x1='104.518' y1='183.167' x2='18.1205' y2='118.364' stroke-width='1.6' /></g><g partID='76290'><line stroke-linecap='round' stroke='#1b5bb3' x1='54.1204' y1='89.5635' x2='61.3194' y2='111.164' stroke-width='3.2' /><line stroke-linecap='round' stroke='#418dd9' x1='54.1204' y1='89.5635' x2='61.3194' y2='111.164' stroke-width='1.6' /></g><g partID='76560'><line stroke-linecap='round' stroke='#8c0000' x1='68.5199' y1='75.1635' x2='32.52' y2='75.1635' stroke-width='3.2' /><line stroke-linecap='round' stroke='#cc1414' x1='68.5199' y1='75.1635' x2='32.52' y2='75.1635' stroke-width='1.6' /></g><g partID='76710'><line stroke-linecap='round' stroke='#8c0000' x1='54.1204' y1='111.164' x2='68.5199' y2='89.5635' stroke-width='3.2' /><line stroke-linecap='round' stroke='#cc1414' x1='54.1204' y1='111.164' x2='68.5199' y2='89.5635' stroke-width='1.6' /></g><g partID='76920'><line stroke-linecap='round' stroke='#00a527' x1='39.7199' y1='89.5635' x2='32.52' y2='111.164' stroke-width='3.2' /><line stroke-linecap='round' stroke='#25cc35' x1='39.7199' y1='89.5635' x2='32.52' y2='111.164' stroke-width='1.6' /></g></svg>